<svg width="80" height="80" viewBox="0 0 80 80" fill="none" xmlns="http://www.w3.org/2000/svg">
<circle cx="40" cy="40" r="40" fill="#2E5CB0"/>
<path d="M56.5938 45.345C57.3704 45.345 58 44.7154 58 43.9388V34.6575C58 31.5559 55.4766 29.0326 52.375 29.0326H46.3229V27.1992C46.3229 25.0682 44.5893 23.3346 42.4583 23.3346H37.5417C35.4107 23.3346 33.6771 25.0682 33.6771 27.1992V29.0325H27.625C24.5234 29.0325 22 31.5559 22 34.6575V51.0403C22 54.1419 24.5234 56.6653 27.625 56.6653H52.375C55.4766 56.6653 58 54.1419 58 51.0403C58 50.2637 57.3704 49.6341 56.5938 49.6341C55.8171 49.6341 55.1875 50.2637 55.1875 51.0403C55.1875 52.5911 53.9258 53.8528 52.375 53.8528H27.625C26.0742 53.8528 24.8125 52.5911 24.8125 51.0403V41.0533H38.6641V43.1653C38.6641 43.942 39.2936 44.5716 40.0703 44.5716C40.847 44.5716 41.4766 43.942 41.4766 43.1653V41.0533H55.1875V43.9388C55.1875 44.7154 55.8171 45.345 56.5938 45.345ZM36.4896 27.1992C36.4896 26.619 36.9615 26.1471 37.5417 26.1471H42.4583C43.0385 26.1471 43.5104 26.619 43.5104 27.1992V29.0325H36.4896V27.1992V27.1992ZM24.8125 38.2409V34.6576C24.8125 33.1068 26.0742 31.8451 27.625 31.8451H52.375C53.9258 31.8451 55.1875 33.1068 55.1875 34.6576V38.2409H24.8125Z" fill="white"/>
</svg>
