<svg width="80" height="80" viewBox="0 0 80 80" fill="none" xmlns="http://www.w3.org/2000/svg">
<circle cx="40" cy="40" r="40" fill="#2E5CB0"/>
<path d="M56.1779 34.375C57.2955 35.3797 58 36.8354 58 38.4531V41.5469C58 43.1646 57.2955 44.6203 56.1779 45.625C57.2955 46.6297 58 48.0854 58 49.7031V52.5156C58 53.2924 57.3705 53.9219 56.5938 53.9219C55.817 53.9219 55.1875 53.2924 55.1875 52.5156V49.7031C55.1875 48.2299 53.9889 47.0312 52.5156 47.0312C51.7389 47.0312 51.1094 46.4017 51.1094 45.625C51.1094 44.8483 51.7389 44.2188 52.5156 44.2188C53.9889 44.2188 55.1875 43.0201 55.1875 41.5469V38.4531C55.1875 36.9799 53.9889 35.7812 52.5156 35.7812C51.7389 35.7812 51.1094 35.1517 51.1094 34.375C51.1094 33.5983 51.7389 32.9688 52.5156 32.9688C53.9889 32.9688 55.1875 31.7701 55.1875 30.2969V27.4844C55.1875 26.0111 53.9889 24.8125 52.5156 24.8125H27.4844C26.0111 24.8125 24.8125 26.0111 24.8125 27.4844V30.2969C24.8125 31.7701 26.0111 32.9688 27.4844 32.9688C27.5003 32.9688 27.5157 32.9707 27.5313 32.9712C27.5627 32.9707 27.5937 32.9688 27.625 32.9688H45.4844C46.2611 32.9688 46.8906 33.5983 46.8906 34.375C46.8906 35.1517 46.2611 35.7812 45.4844 35.7812H27.625C26.0743 35.7812 24.8125 37.043 24.8125 38.5938V41.5469C24.8125 43.0201 26.0111 44.2188 27.4844 44.2188H45.4844C46.2611 44.2188 46.8906 44.8483 46.8906 45.625C46.8906 46.4017 46.2611 47.0312 45.4844 47.0312H27.4844C26.0111 47.0312 24.8125 48.2299 24.8125 49.7031V52.5156C24.8125 53.9889 26.0111 55.1875 27.4844 55.1875H52.5156C53.2924 55.1875 53.9219 55.817 53.9219 56.5938C53.9219 57.3705 53.2924 58 52.5156 58H27.4844C24.4601 58 22 55.5396 22 52.5156V49.7031C22 48.0854 22.7045 46.6297 23.8221 45.625C22.7045 44.6203 22 43.1646 22 41.5469V38.5938C22 36.9359 22.7213 35.4437 23.866 34.4132C22.7232 33.4074 22 31.9355 22 30.2969V27.4844C22 24.4604 24.4601 22 27.4844 22H52.5156C55.5399 22 58 24.4604 58 27.4844V30.2969C58 31.9146 57.2955 33.3703 56.1779 34.375ZM27.625 51.1094C27.625 51.8861 28.2545 52.5156 29.0312 52.5156C29.808 52.5156 30.4375 51.8861 30.4375 51.1094C30.4375 50.3326 29.808 49.7031 29.0312 49.7031C28.2545 49.7031 27.625 50.3326 27.625 51.1094ZM27.625 39.9297C27.625 40.7064 28.2545 41.3359 29.0312 41.3359C29.808 41.3359 30.4375 40.7064 30.4375 39.9297C30.4375 39.153 29.808 38.5234 29.0312 38.5234C28.2545 38.5234 27.625 39.153 27.625 39.9297ZM27.625 28.8906C27.625 29.6674 28.2545 30.2969 29.0312 30.2969C29.808 30.2969 30.4375 29.6674 30.4375 28.8906C30.4375 28.1139 29.808 27.4844 29.0312 27.4844C28.2545 27.4844 27.625 28.1139 27.625 28.8906ZM32.5469 51.1094C32.5469 51.8861 33.1764 52.5156 33.9531 52.5156C34.7299 52.5156 35.3594 51.8861 35.3594 51.1094C35.3594 50.3326 34.7299 49.7031 33.9531 49.7031C33.1764 49.7031 32.5469 50.3326 32.5469 51.1094ZM32.5469 39.9297C32.5469 40.7064 33.1764 41.3359 33.9531 41.3359C34.7299 41.3359 35.3594 40.7064 35.3594 39.9297C35.3594 39.153 34.7299 38.5234 33.9531 38.5234C33.1764 38.5234 32.5469 39.153 32.5469 39.9297ZM32.5469 28.8906C32.5469 29.6674 33.1764 30.2969 33.9531 30.2969C34.7299 30.2969 35.3594 29.6674 35.3594 28.8906C35.3594 28.1139 34.7299 27.4844 33.9531 27.4844C33.1764 27.4844 32.5469 28.1139 32.5469 28.8906Z" fill="white"/>
<path d="M56.1779 34.375C57.2955 35.3797 58 36.8354 58 38.4531V41.5469C58 43.1646 57.2955 44.6203 56.1779 45.625C57.2955 46.6297 58 48.0854 58 49.7031V52.5156C58 53.2924 57.3705 53.9219 56.5938 53.9219C55.817 53.9219 55.1875 53.2924 55.1875 52.5156V49.7031C55.1875 48.2299 53.9889 47.0312 52.5156 47.0312C51.7389 47.0312 51.1094 46.4017 51.1094 45.625C51.1094 44.8483 51.7389 44.2188 52.5156 44.2188C53.9889 44.2188 55.1875 43.0201 55.1875 41.5469V38.4531C55.1875 36.9799 53.9889 35.7812 52.5156 35.7812C51.7389 35.7812 51.1094 35.1517 51.1094 34.375C51.1094 33.5983 51.7389 32.9688 52.5156 32.9688C53.9889 32.9688 55.1875 31.7701 55.1875 30.2969V27.4844C55.1875 26.0111 53.9889 24.8125 52.5156 24.8125H27.4844C26.0111 24.8125 24.8125 26.0111 24.8125 27.4844V30.2969C24.8125 31.7701 26.0111 32.9688 27.4844 32.9688C27.5003 32.9688 27.5157 32.9707 27.5313 32.9712C27.5627 32.9707 27.5937 32.9688 27.625 32.9688H45.4844C46.2611 32.9688 46.8906 33.5983 46.8906 34.375C46.8906 35.1517 46.2611 35.7812 45.4844 35.7812H27.625C26.0743 35.7812 24.8125 37.043 24.8125 38.5938V41.5469C24.8125 43.0201 26.0111 44.2188 27.4844 44.2188H45.4844C46.2611 44.2188 46.8906 44.8483 46.8906 45.625C46.8906 46.4017 46.2611 47.0312 45.4844 47.0312H27.4844C26.0111 47.0312 24.8125 48.2299 24.8125 49.7031V52.5156C24.8125 53.9889 26.0111 55.1875 27.4844 55.1875H52.5156C53.2924 55.1875 53.9219 55.817 53.9219 56.5938C53.9219 57.3705 53.2924 58 52.5156 58H27.4844C24.4601 58 22 55.5396 22 52.5156V49.7031C22 48.0854 22.7045 46.6297 23.8221 45.625C22.7045 44.6203 22 43.1646 22 41.5469V38.5938C22 36.9359 22.7213 35.4437 23.866 34.4132C22.7232 33.4074 22 31.9355 22 30.2969V27.4844C22 24.4604 24.4601 22 27.4844 22H52.5156C55.5399 22 58 24.4604 58 27.4844V30.2969C58 31.9146 57.2955 33.3703 56.1779 34.375ZM27.625 51.1094C27.625 51.8861 28.2545 52.5156 29.0312 52.5156C29.808 52.5156 30.4375 51.8861 30.4375 51.1094C30.4375 50.3326 29.808 49.7031 29.0312 49.7031C28.2545 49.7031 27.625 50.3326 27.625 51.1094ZM27.625 39.9297C27.625 40.7064 28.2545 41.3359 29.0312 41.3359C29.808 41.3359 30.4375 40.7064 30.4375 39.9297C30.4375 39.153 29.808 38.5234 29.0312 38.5234C28.2545 38.5234 27.625 39.153 27.625 39.9297ZM27.625 28.8906C27.625 29.6674 28.2545 30.2969 29.0312 30.2969C29.808 30.2969 30.4375 29.6674 30.4375 28.8906C30.4375 28.1139 29.808 27.4844 29.0312 27.4844C28.2545 27.4844 27.625 28.1139 27.625 28.8906ZM32.5469 51.1094C32.5469 51.8861 33.1764 52.5156 33.9531 52.5156C34.7299 52.5156 35.3594 51.8861 35.3594 51.1094C35.3594 50.3326 34.7299 49.7031 33.9531 49.7031C33.1764 49.7031 32.5469 50.3326 32.5469 51.1094ZM32.5469 39.9297C32.5469 40.7064 33.1764 41.3359 33.9531 41.3359C34.7299 41.3359 35.3594 40.7064 35.3594 39.9297C35.3594 39.153 34.7299 38.5234 33.9531 38.5234C33.1764 38.5234 32.5469 39.153 32.5469 39.9297ZM32.5469 28.8906C32.5469 29.6674 33.1764 30.2969 33.9531 30.2969C34.7299 30.2969 35.3594 29.6674 35.3594 28.8906C35.3594 28.1139 34.7299 27.4844 33.9531 27.4844C33.1764 27.4844 32.5469 28.1139 32.5469 28.8906Z" fill="white"/>
</svg>
