<svg width="80" height="80" viewBox="0 0 80 80" fill="none" xmlns="http://www.w3.org/2000/svg">
<circle cx="40" cy="40" r="40" fill="#2E5CB0"/>
<path d="M39.0156 56.5938C39.0156 57.3705 38.3861 58 37.6094 58H29.5234C26.4217 58 23.8984 55.4767 23.8984 52.375V27.625C23.8984 24.5233 26.4217 22 29.5234 22H46.8126C49.9141 22 52.4376 24.5233 52.4376 27.625V42.5312C52.4376 43.308 51.8078 43.9375 51.0314 43.9375C50.2546 43.9375 49.6251 43.308 49.6251 42.5312V27.625C49.6251 26.0743 48.3633 24.8125 46.8126 24.8125H29.5234C27.9727 24.8125 26.7109 26.0743 26.7109 27.625V52.375C26.7109 53.9257 27.9727 55.1875 29.5234 55.1875H37.6094C38.3861 55.1875 39.0156 55.817 39.0156 56.5938ZM55.5841 44.9035C54.9527 44.4514 54.0743 44.597 53.6222 45.2281L46.6907 54.9104C46.5014 55.1298 46.2641 55.1771 46.1372 55.1856C46.006 55.1941 45.7522 55.1776 45.5344 54.9702L41.047 50.6614C40.487 50.1236 39.5968 50.1415 39.0587 50.7018C38.5207 51.2621 38.5388 52.1523 39.0991 52.69L43.5909 57.0033C44.2638 57.6435 45.1617 58 46.0856 58C46.165 58 46.2446 57.9973 46.3243 57.992C47.3306 57.925 48.2702 57.4356 48.9022 56.649C48.9184 56.6289 48.9344 56.608 48.9495 56.5869L55.909 46.8654C56.3611 46.2339 56.2158 45.3556 55.5841 44.9035V44.9035ZM45.4064 30.4375H30.922C30.1453 30.4375 29.5157 31.067 29.5157 31.8438C29.5157 32.6205 30.1453 33.25 30.922 33.25H45.4064C46.1828 33.25 46.8126 32.6205 46.8126 31.8438C46.8126 31.067 46.1828 30.4375 45.4064 30.4375ZM46.8126 37.4688C46.8126 36.692 46.1828 36.0625 45.4064 36.0625H30.922C30.1453 36.0625 29.5157 36.692 29.5157 37.4688C29.5157 38.2455 30.1453 38.875 30.922 38.875H45.4064C46.1828 38.875 46.8126 38.2455 46.8126 37.4688ZM30.922 41.6875C30.1453 41.6875 29.5157 42.317 29.5157 43.0938C29.5157 43.8705 30.1453 44.5 30.922 44.5H39.7188C40.4955 44.5 41.125 43.8705 41.125 43.0938C41.125 42.317 40.4955 41.6875 39.7188 41.6875H30.922Z" fill="white"/>
</svg>
