<svg width="80" height="80" viewBox="0 0 80 80" fill="none" xmlns="http://www.w3.org/2000/svg">
<circle cx="40" cy="40" r="40" fill="#2E5CB0"/>
<g clip-path="url(#clip0)">
<path d="M55.1878 50.2634V25.5154C55.1878 25.1278 54.8722 24.8122 54.4846 24.8122H51.3912C51.0034 24.8122 50.688 25.1278 50.688 25.5154V55.185H56.5938C57.3705 55.185 58 55.8145 58 56.591C58 57.3677 57.3705 57.9973 56.5938 57.9973H23.409C22.6323 57.9973 22.0027 57.3677 22.0027 56.591V46.5371C22.0027 44.5989 23.5798 43.0218 25.5181 43.0218H28.6116C30.5501 43.0218 32.1269 44.5989 32.1269 46.5371V50.2634C32.1269 51.0402 31.4974 51.6697 30.7209 51.6697C29.9442 51.6697 29.3147 51.0402 29.3147 50.2634V46.5371C29.3147 46.1496 28.9994 45.834 28.6116 45.834H25.5181C25.1306 45.834 24.815 46.1496 24.815 46.5371V55.185H34.9394V36.7645C34.9394 34.826 36.5162 33.2492 38.4548 33.2492H41.5482C43.4865 33.2492 45.0636 34.826 45.0636 36.7645V50.2634C45.0636 51.0402 44.4341 51.6697 43.6573 51.6697C42.8809 51.6697 42.2511 51.0402 42.2511 50.2634V36.7645C42.2511 36.3767 41.9358 36.0614 41.5482 36.0614H38.4548C38.067 36.0614 37.7516 36.3767 37.7516 36.7645V55.185H47.8758V25.5154C47.8758 23.5771 49.4529 22 51.3912 22H54.4846C56.4229 22 58 23.5771 58 25.5154V50.2634C58 51.0402 57.3705 51.6697 56.5938 51.6697C55.8173 51.6697 55.1878 51.0402 55.1878 50.2634V50.2634ZM27.6017 34.5848H25.5077C25.1621 34.5848 24.8122 34.3676 24.8122 33.9523C24.8122 33.1756 24.1827 32.5461 23.4062 32.5461C22.6295 32.5461 22 33.1756 22 33.9523C22 35.8406 23.4727 37.3284 25.3761 37.394V38.1705C25.3761 38.9472 26.0056 39.5768 26.7823 39.5768C27.5588 39.5768 28.1883 38.9472 28.1883 38.1705V37.3561C30.1227 37.0859 31.5647 35.4951 31.5647 33.5126V33.3895C31.5647 31.1799 29.7868 29.3823 27.6017 29.3823H26.3132C25.6725 29.3823 25.1704 28.8931 25.1704 28.2682V28.1664C25.1704 27.5368 25.6617 27.0622 26.3132 27.0622H27.5316C27.8898 27.0622 28.26 27.3017 28.26 27.703C28.26 28.4797 28.8898 29.1093 29.6663 29.1093C30.443 29.1093 31.0725 28.4797 31.0725 27.703C31.0725 26.0177 29.828 24.6117 28.1883 24.3104V23.4062C28.1883 22.6295 27.5588 22 26.7823 22C26.0056 22 25.3761 22.6295 25.3761 23.4062V24.3588C24.6801 24.523 24.0426 24.8699 23.5257 25.3758C22.7726 26.1127 22.3582 27.1037 22.3582 28.1664V28.2682C22.3582 29.3304 22.7718 30.3221 23.523 31.0612C24.2659 31.7921 25.2569 32.1945 26.3132 32.1945H27.6017C28.2254 32.1945 28.7522 32.7419 28.7522 33.3895V33.5126C28.7522 34.124 28.2575 34.5848 27.6017 34.5848Z" fill="white"/>
</g>
<defs>
<clipPath id="clip0">
<rect x="22" y="22" width="36" height="36" fill="white"/>
</clipPath>
</defs>
</svg>
