<svg width="80" height="80" viewBox="0 0 80 80" fill="none" xmlns="http://www.w3.org/2000/svg">
<circle cx="40" cy="40" r="40" fill="#2E5CB0"/>
<path d="M55.1871 45.2032V38.8199C55.1871 37.7275 54.274 37.6096 53.8814 37.6096C53.3011 37.6096 52.9857 38.0996 52.9028 38.2498C52.4679 39.0386 51.8426 39.1564 51.5085 39.1564C51.1375 39.1564 50.2467 39.0128 49.9893 37.683C49.9467 37.4625 49.9239 37.2518 49.9215 37.2285C49.9207 37.221 49.92 37.2134 49.9193 37.2058C49.8091 37.0151 49.3361 36.5597 48.7185 36.5597C48.3461 36.5597 47.993 36.7438 47.7667 37.0483C47.7588 37.0962 47.7505 37.1494 47.7439 37.1917C47.7207 37.341 47.6967 37.4952 47.662 37.6413C47.4456 38.5522 46.7484 38.8753 46.2172 38.8753C45.6867 38.8753 44.7696 38.5212 44.6976 37.1937C44.6686 36.6568 44.1272 36.2035 43.5154 36.2035C42.976 36.2035 42.4883 36.5847 42.3558 37.11C42.3457 37.1497 42.3333 37.1882 42.3201 37.2262V37.7475C42.3201 38.5242 41.6906 39.1538 40.9139 39.1538C40.1372 39.1538 39.5077 38.5242 39.5077 37.7475V26.0081C39.5077 25.349 38.9715 24.8128 38.3124 24.8128C37.6533 24.8128 37.1171 25.349 37.1171 26.0081V43.4776C37.1171 45.62 35.5953 47.9904 33.137 48.0843C32.7942 48.0975 32.4488 48.038 32.0819 47.9024C32.0482 47.89 32.0153 47.8763 31.9828 47.8614L26.6209 45.4018C26.4914 45.3633 26.3564 45.3438 26.2186 45.3438C25.4432 45.3438 24.8124 45.9746 24.8124 46.75C24.8124 47.1003 24.9392 47.4301 25.1712 47.6883L26.158 48.3924L32.9086 52.6043C35.6171 54.2942 38.7361 55.1873 41.9284 55.1873H50.1598C52.3097 55.1873 54.2192 53.8276 54.9111 51.8037C55.1623 51.0688 55.9615 50.6768 56.6966 50.9279C57.4315 51.1792 57.8236 51.9786 57.5724 52.7135C56.4914 55.8754 53.5125 57.9999 50.1598 57.9999H41.9284C38.2092 57.9999 34.5754 56.9593 31.4199 54.9905L24.6323 50.7555C24.6076 50.7401 24.5836 50.724 24.56 50.7072L23.4332 49.9031C23.3737 49.8607 23.3176 49.8138 23.2655 49.7626C22.4494 48.9627 22 47.8928 22 46.7501C22 44.4239 23.8925 42.5314 26.2187 42.5314C26.6877 42.5314 27.1489 42.6082 27.5896 42.7595C27.6337 42.7747 27.6768 42.792 27.7191 42.8113L33.08 45.2705C33.8401 45.1993 34.3045 44.1916 34.3045 43.4775V26.0081C34.3045 23.7982 36.1024 22.0004 38.3123 22.0004C40.5222 22.0004 42.3201 23.7982 42.3201 26.0081V33.5731C42.6995 33.4546 43.1012 33.3909 43.5154 33.3909C44.5107 33.3909 45.4695 33.7545 46.2152 34.4148C46.2598 34.4544 46.3034 34.4947 46.346 34.5358C47.0249 34.0325 47.8544 33.7471 48.7184 33.7471C49.6934 33.7471 50.6639 34.1049 51.4509 34.7546C51.658 34.9256 51.8427 35.1084 52.0028 35.2992C52.5729 34.9753 53.2169 34.7971 53.8813 34.7971C56.2675 34.7971 57.9995 36.4889 57.9995 38.8199V45.2032C57.9995 45.9799 57.3699 46.6095 56.5933 46.6095C55.8166 46.6095 55.1871 45.9798 55.1871 45.2032ZM46.1871 25.9382C46.3404 25.9382 46.4962 25.9129 46.6492 25.8598L49.8835 24.7348C50.6171 24.4796 51.0048 23.6782 50.7497 22.9447C50.4946 22.211 49.6932 21.8233 48.9595 22.0784L45.7252 23.2034C44.9916 23.4586 44.6039 24.2601 44.859 24.9935C45.061 25.5742 45.6052 25.9382 46.1871 25.9382ZM45.7252 30.5707L48.9595 31.6956C49.1125 31.7488 49.2683 31.774 49.4216 31.774C50.0034 31.774 50.5477 31.41 50.7497 30.8294C51.0048 30.0958 50.617 29.2944 49.8835 29.0393L46.6492 27.9143C45.9159 27.6593 45.1142 28.0469 44.859 28.7805C44.6039 29.514 44.9917 30.3155 45.7252 30.5707ZM26.741 24.7348L29.9754 25.8598C30.1283 25.9129 30.2841 25.9382 30.4374 25.9382C31.0192 25.9382 31.5636 25.5742 31.7655 24.9935C32.0207 24.26 31.6328 23.4585 30.8993 23.2034L27.665 22.0784C26.9317 21.8235 26.13 22.211 25.8749 22.9447C25.6197 23.6782 26.0076 24.4796 26.741 24.7348ZM27.2028 31.8444C27.3473 31.8444 27.4942 31.8219 27.639 31.7747L30.8733 30.72C31.6117 30.4793 32.0151 29.6855 31.7743 28.9471C31.5335 28.2087 30.7398 27.8054 30.0014 28.0461L26.7671 29.1008C26.0286 29.3415 25.6253 30.1353 25.8661 30.8737C26.0597 31.4673 26.6105 31.8444 27.2028 31.8444Z" fill="white"/>
</svg>
