<svg width="400" height="230" viewBox="0 0 400 230" fill="none" xmlns="http://www.w3.org/2000/svg">
<g clip-path="url(#clip0)">
<path d="M400 0H0V230H400V0Z" fill="#ECFBFF"/>
<path fill-rule="evenodd" clip-rule="evenodd" d="M1 222C2.59118 217.741 19.9401 204.578 36.0059 211.056C52.0716 217.535 56.2292 212.063 64.5444 203.339C93.8784 172.623 107.711 213.947 119.825 193.892C126.241 183.283 137.892 180.806 146.362 183.516C151.443 185.142 159.912 192.885 168.715 180.857C170.948 177.811 174.9 173.243 179.314 169.965C190.068 161.989 196.047 167.022 206.287 172.288C211.292 174.869 218.349 172.107 222.764 169.707C254.459 152.542 240.292 188.833 268.394 175.772C274.041 173.14 282.612 172.21 291.851 179.076C305.222 189.013 310.381 201.945 329.141 195.337C358.27 185.09 356.012 211.856 369.819 211.211C381.034 210.695 392.018 212.734 400 221.819C371.821 221.948 1 222 1 222Z" fill="#A8DBF6"/>
<path fill-rule="evenodd" clip-rule="evenodd" d="M252.631 203.979H199.654C196.051 203.979 193.105 207.793 193.105 212.47C193.105 217.125 196.051 220.962 199.654 220.962H252.631C256.233 220.962 259.179 217.147 259.179 212.47C259.179 207.793 256.233 203.979 252.631 203.979Z" fill="#092978"/>
<path fill-rule="evenodd" clip-rule="evenodd" d="M209.963 218.351H163.625C165.664 215.308 166.457 210.995 163.625 206.545H209.963C211.617 206.545 212.954 209.201 212.954 212.448C212.954 215.694 211.617 218.351 209.963 218.351Z" fill="#D8D8D8"/>
<path fill-rule="evenodd" clip-rule="evenodd" d="M165.46 212.38C165.438 210.541 164.894 208.565 163.625 206.567H209.963C211.594 206.567 212.931 209.178 212.954 212.38H165.46Z" fill="#EDEEEE"/>
<path fill-rule="evenodd" clip-rule="evenodd" d="M162.107 220.939H210.145C212.501 220.939 215.016 217.079 215.016 212.402C215.016 207.725 212.524 203.979 210.145 203.979H162.107L162.13 206.522L209.963 206.567C211.617 206.567 212.954 209.224 212.954 212.47C212.954 215.717 211.617 218.373 209.963 218.373L162.13 218.328L162.107 220.939Z" fill="#1B42A2"/>
<path fill-rule="evenodd" clip-rule="evenodd" d="M238.831 220.939C242.434 220.939 245.38 217.125 245.38 212.448C245.38 207.771 242.434 203.956 238.831 203.956H247.532C251.135 203.956 254.081 207.771 254.081 212.448C254.081 217.125 251.135 220.939 247.532 220.939H238.831Z" fill="#1B42A2"/>
<path fill-rule="evenodd" clip-rule="evenodd" d="M218.551 221.053C222.154 221.053 225.099 217.238 225.099 212.561C225.099 207.884 222.154 204.07 218.551 204.07H227.116C230.719 204.07 233.664 207.884 233.664 212.561C233.664 217.238 230.719 221.053 227.116 221.053H218.551Z" fill="#1B42A2"/>
<path fill-rule="evenodd" clip-rule="evenodd" d="M252.631 190.765H199.654C196.051 190.765 193.105 193.74 193.105 197.372C193.105 201.005 196.051 203.979 199.654 203.979H252.631C256.233 203.979 259.179 201.005 259.179 197.372C259.179 193.74 256.233 190.765 252.631 190.765Z" fill="#00A0E8"/>
<path fill-rule="evenodd" clip-rule="evenodd" d="M202.078 201.958H155.74C157.78 199.597 158.573 196.237 155.74 192.763H202.078C203.732 192.763 205.069 194.829 205.069 197.349C205.069 199.892 203.732 201.958 202.078 201.958Z" fill="#EDEEEE"/>
<path fill-rule="evenodd" clip-rule="evenodd" d="M157.576 197.327C157.553 195.896 157.009 194.33 155.74 192.763H202.078C203.709 192.763 205.046 194.807 205.069 197.327H157.576Z" fill="#D8D8D8"/>
<path fill-rule="evenodd" clip-rule="evenodd" d="M154.223 203.979H202.26C204.616 203.979 207.131 200.959 207.131 197.327C207.131 193.694 204.639 190.765 202.26 190.765H154.223L154.245 192.741L202.078 192.786C203.733 192.786 205.069 194.852 205.069 197.372C205.069 199.892 203.733 201.958 202.078 201.958L154.245 201.913L154.223 203.979Z" fill="#4895D1"/>
<path fill-rule="evenodd" clip-rule="evenodd" d="M213.611 194.943H242.706C244.133 194.943 245.289 196.101 245.289 197.531C245.289 198.962 244.133 200.119 242.706 200.119H213.611C212.184 200.119 211.028 198.962 211.028 197.531C211.028 196.101 212.184 194.943 213.611 194.943Z" fill="#76C5FB"/>
<path fill-rule="evenodd" clip-rule="evenodd" d="M250.069 194.943H251.882C253.31 194.943 254.465 196.101 254.465 197.531C254.465 198.962 253.31 200.119 251.882 200.119H250.069C248.642 200.119 247.486 198.962 247.486 197.531C247.486 196.101 248.642 194.943 250.069 194.943Z" fill="#76C5FB"/>
<path fill-rule="evenodd" clip-rule="evenodd" d="M165.053 182.501H202.849C205.115 182.501 206.95 184.363 206.95 186.633C206.95 188.904 205.115 190.765 202.849 190.765H165.053C162.788 190.765 160.952 188.904 160.952 186.633C160.952 184.363 162.81 182.501 165.053 182.501Z" fill="#8B5452"/>
<path fill-rule="evenodd" clip-rule="evenodd" d="M201.331 189.494H245.675C244.406 188.018 243.907 185.907 245.675 183.75H201.331C200.311 183.75 199.45 185.044 199.45 186.633C199.473 188.2 200.311 189.494 201.331 189.494Z" fill="#EDEEEE"/>
<path fill-rule="evenodd" clip-rule="evenodd" d="M246.648 190.765H201.24C199.767 190.765 198.181 188.881 198.181 186.61C198.181 184.34 199.744 182.501 201.24 182.501H246.648L246.626 183.75L201.33 183.772C200.311 183.772 199.45 185.067 199.45 186.656C199.45 188.245 200.288 189.539 201.33 189.539L246.626 189.517L246.648 190.765Z" fill="#A76C6A"/>
<path fill-rule="evenodd" clip-rule="evenodd" d="M203.302 186.701C204.593 186.701 205.522 186.701 206.814 186.701C208.173 187.223 207.766 189.244 208.581 190.584L206.497 189.494L204.979 190.516C203.823 189.29 204.503 187.246 203.302 186.701Z" fill="#76C5FB"/>
<path fill-rule="evenodd" clip-rule="evenodd" d="M167.682 182.501H178.604C176.972 182.501 175.635 184.363 175.635 186.633C175.635 188.904 176.972 190.765 178.604 190.765H167.682C166.051 190.765 164.714 188.904 164.714 186.633C164.714 184.363 166.051 182.501 167.682 182.501Z" fill="#A26A68"/>
<path fill-rule="evenodd" clip-rule="evenodd" d="M184.562 182.501H196.458C194.691 182.501 193.241 184.363 193.241 186.633C193.241 188.904 194.691 190.765 196.458 190.765H184.562C182.795 190.765 181.345 188.904 181.345 186.633C181.345 184.363 182.795 182.501 184.562 182.501Z" fill="#A26A68"/>
<path fill-rule="evenodd" clip-rule="evenodd" d="M194.147 210.109H198.135V216.444L196.232 214.991L194.147 216.444V210.109Z" fill="#BB3048"/>
<path d="M336.378 220.757C336.378 220.757 327.609 216.761 328.9 210.563C330.192 204.365 337.33 205.023 336.378 200.142C335.426 195.261 330.736 187.655 335.29 182.115C339.845 176.575 347.413 179.89 348.364 171.308C349.135 164.383 352.33 159.479 358.516 160.909C364.248 162.249 368.508 166.676 368.622 177.256C368.735 188.495 376.643 185.339 376.734 193.626C376.824 201.981 370.208 201.981 367.602 207.566C366.378 210.223 369.573 219.509 360.147 220.757H336.378Z" fill="#009844"/>
<path d="M357.542 165.405C357.542 165.405 357.565 165.586 357.587 165.972C357.678 167.085 357.882 169.787 357.882 173.533C357.882 184.544 356.16 204.637 345.215 220.667C345.057 220.894 345.125 221.189 345.351 221.325C345.578 221.484 345.872 221.416 346.008 221.211C357.111 204.887 358.833 184.635 358.833 173.533C358.833 168.47 358.471 165.314 358.471 165.291C358.448 165.019 358.199 164.837 357.95 164.86C357.7 164.905 357.519 165.155 357.542 165.405Z" fill="#005E90"/>
<path d="M346.914 220.757C346.914 220.757 345.532 213.106 350.698 209.996C355.864 206.885 361.167 204.456 360.577 199.461C360.011 194.443 361.416 188.54 369.709 188.427C374.83 188.359 372.904 182.955 378.115 181.865C381.288 181.207 383.372 184.522 383.78 187.768C384.233 191.469 382.149 195.102 384.551 198.121C387.655 202.027 388.924 209.315 382.239 211.381C375.555 213.447 381.514 219.804 372.405 220.735H346.914V220.757Z" fill="#56B775"/>
<path d="M377.776 185.498C377.595 190.357 375.442 197.281 371.772 203.911C368.078 210.518 362.867 216.83 356.658 220.553C356.431 220.689 356.363 220.984 356.499 221.211C356.635 221.439 356.93 221.507 357.157 221.37C363.592 217.533 368.871 211.108 372.633 204.388C376.371 197.667 378.569 190.652 378.773 185.543C378.773 185.271 378.569 185.067 378.32 185.044C378.026 185.021 377.799 185.225 377.776 185.498Z" fill="#0071AE"/>
<path fill-rule="evenodd" clip-rule="evenodd" d="M153.271 100.63L156.058 100.403C157.213 100.312 158.188 99.4495 158.414 98.2916C158.822 96.0666 159.525 93.9324 160.454 91.9117C160.952 90.8446 160.658 89.5732 159.751 88.824L157.621 87.0076C156.511 86.0768 156.375 84.4194 157.304 83.3069L160.771 79.1974C161.7 78.0849 163.377 77.9487 164.464 78.8796L166.594 80.6959C167.501 81.4452 168.77 81.536 169.744 80.8776C171.557 79.6288 173.551 78.5844 175.681 77.8125C176.768 77.4038 177.471 76.314 177.357 75.1334L177.131 72.3408C177.017 70.8878 178.082 69.6163 179.533 69.5028L184.88 69.0487C186.33 68.9352 187.599 70.0023 187.712 71.4554L187.939 74.248C188.03 75.4059 188.891 76.3821 190.046 76.6092C192.267 77.0179 194.397 77.7217 196.414 78.6298C197.478 79.1293 198.747 78.8342 199.495 77.926L201.308 75.7918C202.237 74.6793 203.891 74.5431 205.001 75.474L209.103 78.9477C210.213 79.8786 210.349 81.536 209.42 82.6485L207.607 84.7827C206.859 85.6681 206.769 86.9849 207.448 87.9385C208.695 89.7775 209.737 91.7528 210.507 93.887C210.915 94.9995 212.003 95.6806 213.181 95.5671L215.968 95.34C217.418 95.2265 218.687 96.2936 218.801 97.7467L219.254 103.105C219.367 104.558 218.302 105.829 216.852 105.943L214.065 106.17C212.909 106.261 211.935 107.123 211.708 108.281C211.3 110.506 210.598 112.641 209.692 114.639C209.193 115.706 209.488 116.977 210.371 117.726L212.501 119.543C213.612 120.473 213.748 122.154 212.819 123.243L209.374 127.353C208.445 128.465 206.769 128.602 205.658 127.671L203.528 125.854C202.622 125.105 201.331 125.014 200.379 125.695C198.566 126.944 196.572 127.989 194.442 128.76C193.355 129.169 192.652 130.259 192.765 131.44L192.992 134.232C193.105 135.685 192.04 136.957 190.59 137.07L185.243 137.524C183.792 137.638 182.524 136.571 182.41 135.118L182.184 132.325C182.093 131.167 181.232 130.191 180.076 129.964C177.856 129.555 175.726 128.851 173.732 127.943C172.667 127.444 171.421 127.739 170.65 128.647L168.838 130.781C167.908 131.894 166.232 132.03 165.121 131.099L161.02 127.625C159.91 126.694 159.774 125.037 160.703 123.924L162.516 121.79C163.263 120.905 163.354 119.611 162.697 118.634C161.451 116.818 160.408 114.82 159.638 112.686C159.23 111.596 158.142 110.892 156.964 111.006L154.177 111.233C152.727 111.346 151.458 110.279 151.345 108.826L150.892 103.468C150.756 102.038 151.821 100.766 153.271 100.63ZM170.945 106.965C172.44 112.89 177.675 117.34 183.77 117.817C193.83 118.612 201.557 109.439 199.11 99.6311C197.614 93.7053 192.38 89.2554 186.285 88.7786C176.247 87.9839 168.498 97.1564 170.945 106.965Z" fill="#63C7FF"/>
<path fill-rule="evenodd" clip-rule="evenodd" d="M195.03 87.7115C199.109 90.3451 201.964 94.4546 202.984 99.2224C204.003 103.968 203.12 108.917 200.491 113.004C197.863 117.091 193.762 119.951 189.003 120.973C184.267 121.995 179.328 121.109 175.249 118.475C171.17 115.842 168.315 111.732 167.296 106.965C166.276 102.219 167.16 97.2699 169.788 93.1832C172.417 89.0964 176.518 86.2357 181.276 85.214C186.012 84.1923 190.952 85.1005 195.03 87.7115ZM181.027 84.0561C175.974 85.1459 171.601 88.1883 168.791 92.5475C166.004 96.9066 165.053 102.174 166.14 107.214C167.228 112.277 170.264 116.659 174.615 119.474C178.965 122.267 184.222 123.221 189.252 122.131C194.305 121.041 198.679 117.999 201.488 113.64C204.275 109.28 205.227 104.013 204.139 98.9727C203.052 93.9097 200.015 89.5278 195.665 86.7125C191.337 83.9199 186.08 82.9663 181.027 84.0561Z" fill="white"/>
<path d="M186.737 124.946C190.567 124.696 194.351 123.425 197.727 121.064C197.863 120.973 197.999 120.882 198.112 120.791L198.407 121.45L198.112 121.654C194.668 124.061 190.816 125.355 186.919 125.65L186.737 124.946ZM170.468 87.0758C167.205 90.0954 165.03 93.9324 164.033 98.0645L163.376 97.8375C164.396 93.5918 166.639 89.6413 170.015 86.5536L170.468 87.0758ZM195.212 83.7156C193.263 82.7166 191.179 82.0128 189.049 81.6495C188.573 81.5587 188.12 81.4906 187.644 81.4452L187.734 80.7413C188.21 80.7867 188.709 80.8548 189.185 80.9457C191.36 81.3316 193.49 82.0355 195.484 83.0571L195.212 83.7156Z" fill="white"/>
<path fill-rule="evenodd" clip-rule="evenodd" d="M113.957 93.6145L115.656 92.7291C116.359 92.3658 116.767 91.5712 116.586 90.7765C116.268 89.2554 116.155 87.7115 116.223 86.213C116.246 85.4184 115.747 84.6918 114.977 84.4421L113.141 83.8518C112.19 83.5566 111.668 82.535 111.963 81.5814L113.096 78.085C113.391 77.1314 114.41 76.6092 115.362 76.927L117.197 77.5174C117.968 77.7671 118.806 77.4719 119.237 76.7908C120.075 75.5194 121.049 74.3388 122.205 73.2944C122.794 72.7495 122.953 71.8867 122.567 71.1602L121.684 69.4574C121.231 68.5719 121.57 67.4821 122.454 67.0281L125.717 65.348C126.601 64.8939 127.688 65.2344 128.142 66.1199L129.025 67.8227C129.388 68.5265 130.181 68.9352 130.974 68.7763C132.492 68.4584 134.033 68.3449 135.528 68.3903C136.344 68.4357 137.047 67.9135 137.296 67.1416L137.885 65.3026C138.18 64.349 139.199 63.8268 140.151 64.1446L143.64 65.2798C144.592 65.575 145.113 66.5967 144.796 67.5503L144.207 69.3893C143.958 70.1612 144.252 71.0013 144.932 71.4327C146.201 72.2727 147.379 73.249 148.421 74.4069C148.965 74.9972 149.826 75.1561 150.551 74.7702L152.251 73.8847C153.134 73.4306 154.222 73.7712 154.675 74.6566L156.352 77.926C156.805 78.8115 156.465 79.9013 155.582 80.3554L153.882 81.2408C153.18 81.6041 152.772 82.3987 152.931 83.1934C153.248 84.7146 153.361 86.2357 153.316 87.7569C153.27 88.5742 153.792 89.2781 154.562 89.5278L156.397 90.1181C157.349 90.4133 157.87 91.435 157.553 92.3885L156.42 95.885C156.125 96.8385 155.106 97.3607 154.154 97.0429L152.319 96.4526C151.548 96.2028 150.71 96.498 150.279 97.1791C149.441 98.4505 148.467 99.6311 147.311 100.676C146.722 101.22 146.563 102.106 146.949 102.81L147.832 104.513C148.285 105.398 147.946 106.488 147.062 106.942L143.799 108.622C142.915 109.076 141.828 108.735 141.374 107.827L140.491 106.125C140.128 105.421 139.335 105.012 138.542 105.194C137.024 105.511 135.506 105.625 133.988 105.557C133.195 105.511 132.469 106.034 132.22 106.806L131.631 108.645C131.337 109.598 130.317 110.12 129.365 109.803L125.876 108.667C124.924 108.372 124.403 107.351 124.72 106.397L125.309 104.558C125.558 103.786 125.264 102.946 124.584 102.515C123.315 101.674 122.137 100.698 121.095 99.5403C120.551 98.95 119.69 98.7911 118.965 99.177L117.265 100.063C116.382 100.517 115.294 100.176 114.841 99.2906L113.164 96.0212C112.711 95.1584 113.073 94.0686 113.957 93.6145ZM126.827 92.9788C129.32 96.3617 133.806 97.7921 137.794 96.5207C144.388 94.3865 146.903 86.5536 142.779 80.9684C140.287 77.5855 135.8 76.1551 131.812 77.4265C125.219 79.5607 122.703 87.4163 126.827 92.9788Z" fill="#63C7FF"/>
<path fill-rule="evenodd" clip-rule="evenodd" d="M141.873 76.1324C144.728 77.9714 146.7 80.8322 147.425 84.147C148.15 87.4618 147.515 90.8901 145.68 93.7508C143.845 96.6115 140.99 98.5868 137.681 99.3133C134.373 100.04 130.952 99.4041 128.097 97.5651C125.242 95.726 123.27 92.8653 122.545 89.5505C121.82 86.2357 122.454 82.8074 124.29 79.9467C126.125 77.086 128.98 75.1107 132.288 74.3842C135.597 73.6804 139.041 74.2934 141.873 76.1324ZM132.107 73.5896C128.595 74.3615 125.536 76.473 123.587 79.5153C121.639 82.5577 120.982 86.213 121.729 89.7322C122.5 93.2513 124.607 96.3163 127.643 98.2689C130.68 100.221 134.328 100.88 137.84 100.131C141.375 99.3587 144.411 97.2472 146.36 94.2049C148.308 91.1625 148.965 87.5072 148.218 83.988C147.447 80.4689 145.34 77.4038 142.304 75.4513C139.29 73.476 135.642 72.8176 132.107 73.5896Z" fill="white"/>
<path d="M136.095 102.06C138.746 101.879 141.397 100.993 143.753 99.3587C143.844 99.2906 143.935 99.2224 144.025 99.1543L144.229 99.6084L144.025 99.7446C141.623 101.425 138.927 102.333 136.231 102.537L136.095 102.06ZM124.765 75.6783C122.476 77.7671 120.958 80.4689 120.279 83.3296L119.803 83.1707C120.505 80.2191 122.069 77.4719 124.425 75.315L124.765 75.6783ZM141.986 73.3398C140.626 72.636 139.176 72.1592 137.703 71.8867C137.386 71.8186 137.046 71.7732 136.729 71.7505L136.774 71.2737C137.114 71.3191 137.454 71.3645 137.771 71.4099C139.289 71.6824 140.762 72.1819 142.144 72.8857L141.986 73.3398Z" fill="white"/>
<path fill-rule="evenodd" clip-rule="evenodd" d="M77.7704 220.78H399.664C400.095 220.78 400.435 221.121 400.435 221.552C400.435 221.983 400.095 222.324 399.664 222.324H77.7704C77.3399 222.324 77 221.983 77 221.552C77 221.121 77.3399 220.78 77.7704 220.78Z" fill="#092978"/>
<path fill-rule="evenodd" clip-rule="evenodd" d="M322.216 52.1796H252.2C245.787 52.1796 240.53 57.4469 240.53 63.8722V209.065C240.53 215.49 245.787 220.757 252.2 220.757H322.216C328.629 220.757 333.885 215.49 333.885 209.065V63.8722C333.885 57.4469 328.629 52.1796 322.216 52.1796Z" fill="#102B6E"/>
<path d="M326.839 52.1796H233.483V220.757H326.839V52.1796Z" fill="url(#paint0_linear)"/>
<path fill-rule="evenodd" clip-rule="evenodd" d="M285.44 58.1508C285.848 58.1508 286.165 57.8102 286.165 57.4242C286.165 57.0156 285.825 56.6977 285.44 56.6977H271.799C271.391 56.6977 271.074 57.0383 271.074 57.4242C271.074 57.8329 271.414 58.1508 271.799 58.1508H285.44ZM287.887 56.675C287.479 56.675 287.162 57.0156 287.162 57.4015C287.162 57.8102 287.502 58.1281 287.887 58.1281H288.522C288.93 58.1281 289.247 57.7875 289.247 57.4015C289.247 56.9929 288.907 56.675 288.522 56.675H287.887Z" fill="white"/>
<path fill-rule="evenodd" clip-rule="evenodd" d="M276.127 203.82H285.281C287.66 203.82 289.609 205.773 289.609 208.157C289.609 210.541 287.66 212.493 285.281 212.493H276.127C273.748 212.493 271.799 210.541 271.799 208.157C271.799 205.773 273.748 203.82 276.127 203.82Z" fill="#76C5FB"/>
<path fill-rule="evenodd" clip-rule="evenodd" d="M205.885 220.757H194.759C194.238 220.757 193.808 220.371 193.74 219.872C193.74 219.804 193.717 219.736 193.74 219.645L194.193 213.787C194.193 213.787 194.646 213.583 195.303 213.424C195.688 213.333 196.005 213.061 196.119 212.675C196.119 212.652 196.141 212.629 196.141 212.584C196.391 211.449 198.022 211.108 198.317 212.198C198.362 212.334 198.385 212.47 198.407 212.607C198.407 212.629 198.43 212.675 198.43 212.697C198.475 212.924 198.521 213.152 198.543 213.333V213.356C198.611 213.833 198.589 214.151 198.589 214.151C198.725 214.332 198.883 214.514 199.019 214.695C199.087 214.786 199.155 214.877 199.223 214.968C199.359 215.149 199.518 215.354 199.654 215.513C199.722 215.604 199.79 215.672 199.857 215.762C200.016 215.967 200.175 216.148 200.311 216.307C200.379 216.376 200.447 216.466 200.515 216.534C201.081 217.147 201.67 217.556 202.35 217.647C203.551 217.806 205.522 217.942 206.474 219.713C206.497 219.758 206.519 219.781 206.519 219.827C206.678 220.281 206.361 220.757 205.885 220.757Z" fill="#9D1F39"/>
<path fill-rule="evenodd" clip-rule="evenodd" d="M175.091 175.44V182.297C175.091 189.903 176.428 206.59 176.904 215.808L182.002 215.717L186.171 182.456L193.309 183.477L193.671 174.396C193.762 143.019 177.719 150.329 179.124 168.107C179.283 170.059 174.343 173.283 175.091 175.44Z" fill="#0072C3"/>
<path fill-rule="evenodd" clip-rule="evenodd" d="M194.238 175.962L182.138 178.573L190.861 198.417L194.124 215.308L199.495 215.445C199.359 207.248 198.701 199.03 198.316 194.307C198.112 191.81 195.665 183.069 194.238 175.962Z" fill="#0072C3"/>
<path fill-rule="evenodd" clip-rule="evenodd" d="M183.792 220.212C183.702 221.847 177.946 221.28 177.04 220.78C176.677 220.598 176.541 220.235 176.519 219.781C176.473 219.077 176.745 218.192 176.972 217.488C177.334 216.353 177.289 216.376 177.538 215.581C177.538 215.581 177.47 214.309 179.351 213.833C181.232 213.356 181.934 216.512 182.251 217.125C182.546 217.692 183.702 218.442 183.815 219.827C183.792 219.94 183.792 220.076 183.792 220.212Z" fill="#9D1F39"/>
<path fill-rule="evenodd" clip-rule="evenodd" d="M188.731 151.873C190.476 155.71 191.609 156.936 196.617 157.686C200.673 158.299 208.377 149.149 208.966 147.9C209.555 146.651 207.334 143.405 206.609 143.768C205.884 144.154 197.568 150.511 197.002 150.466C196.435 150.42 194.464 149.535 190.023 146.629C189.615 146.356 187.485 150.012 188.731 151.873Z" fill="#76C5FB"/>
<path fill-rule="evenodd" clip-rule="evenodd" d="M172.531 148.331C170.876 150.806 175.884 165.314 174.502 177.937C182.274 179.277 190.476 178.301 195.122 176.825C195.122 167.267 194.238 155.869 192.267 148.74C191.791 147.582 190.884 146.765 188.618 146.129C183.044 144.585 174.796 144.926 172.531 148.331Z" fill="#0097D6"/>
<path fill-rule="evenodd" clip-rule="evenodd" d="M186.874 141.475C186.33 142.565 185.333 143.541 184.472 143.949L184.495 145.539L184.721 145.743C185.628 146.719 184.744 149.012 183.792 149.807C182.274 149.625 179.011 146.629 179.804 145.471L180.144 145.085L180.212 142.837C180.076 142.837 179.102 142.269 178.807 142.179C178.513 142.088 178.082 141.52 178.06 140.93C178.037 140.34 178.943 140.521 178.943 140.521C177.833 139 176.587 137.774 178.218 136.412C179.85 135.049 183.566 134.255 183.566 134.255L185.809 133.483C185.515 134.255 186.126 136.48 186.693 138.092C187.237 139.568 187.622 140.022 186.874 141.475Z" fill="#F7CCCF"/>
<path fill-rule="evenodd" clip-rule="evenodd" d="M181.3 143.178C181.3 143.178 182.569 145.357 183.611 145.562C184.653 145.766 184.132 145.607 184.517 145.562L184.495 143.972C183.77 144.086 183.067 144.018 181.3 143.178Z" fill="#E98385"/>
<path fill-rule="evenodd" clip-rule="evenodd" d="M177.742 149.535C177.651 147.4 175.907 146.47 174.207 146.742C169.925 147.832 169.766 160.819 170.899 164.224C171.692 166.517 183.928 169.264 185.491 168.765C186.148 168.561 187.236 167.902 187.576 167.153C187.757 166.722 187.961 166.041 187.032 165.609C184.517 164.497 177.085 161.999 176.949 161.318C175.725 155.642 177.901 152.94 177.742 149.535Z" fill="#76C5FB"/>
<path fill-rule="evenodd" clip-rule="evenodd" d="M206.814 144.199C206.633 145.38 207.72 147.287 208.559 147.605C208.649 147.446 209.216 146.719 209.578 146.174C210.371 144.994 208.491 142.496 207.947 143.064L206.814 144.199Z" fill="#76C5FB"/>
<path fill-rule="evenodd" clip-rule="evenodd" d="M187.033 131.984C187.69 134.073 187.101 135.776 185.062 136.366C183.521 136.798 181.436 136.684 180.349 137.978C179.805 138.614 179.873 139.522 180.462 140.953C180.643 141.361 180.87 141.679 180.167 141.361C179.85 141.202 179.306 140.998 179.125 141.157C178.717 141.475 178.921 142.179 179.238 142.383C179.374 142.474 179.646 142.633 179.646 142.633C179.646 142.633 178.83 142.951 177.992 142.406C177.154 141.861 174.706 140.249 174.842 137.502C175.046 133.437 179.012 132.03 182.546 129.896C184.133 128.942 186.512 130.327 187.033 131.984Z" fill="#000446"/>
<path d="M321.287 62.0104H239.058V194.148H321.287V62.0104Z" fill="url(#paint1_linear)"/>
<path d="M313.04 138.932H255.44V167.04H313.04V138.932Z" fill="url(#paint2_linear)"/>
<path d="M313.22 69.0941H273.363V114.797H313.22V69.0941Z" fill="url(#paint3_linear)"/>
<path fill-rule="evenodd" clip-rule="evenodd" d="M259.043 68.6854V69.0941H258.363V68.6854H259.043ZM259.859 68.6854V69.0941H259.179V68.6854H259.859ZM260.674 68.6854V69.0941H259.994V68.6854H260.674ZM261.49 68.6854V69.0941H260.81V68.6854H261.49ZM262.306 68.6854V69.0941H261.626V68.6854H262.306ZM263.121 68.6854V69.0941H262.442V68.6854H263.121ZM263.937 68.6854V69.0941H263.257V68.6854H263.937ZM264.753 68.6854V69.0941H264.073V68.6854H264.753ZM265.569 68.6854V69.0941H264.889V68.6854H265.569ZM266.384 68.6854V69.0941H265.705V68.6854H266.384ZM267.2 68.6854V69.0941H266.52V68.6854H267.2ZM268.016 68.6854V69.0941H267.336V68.6854H268.016ZM268.831 68.6854V69.0941H268.152V68.6854H268.831ZM269.647 68.6854V69.0941H268.967V68.6854H269.647ZM270.463 68.6854V69.0941H269.783V68.6854H270.463ZM271.279 68.6854V69.0941H270.599V68.6854H271.279ZM272.117 68.6854V69.0941H271.437V68.6854H272.117ZM272.933 68.6854V69.0941H272.253V68.6854H272.933ZM273.748 68.6854V69.0941H273.069V68.6854H273.748ZM274.564 68.6854V69.0941H273.884V68.6854H274.564ZM275.38 68.6854V69.0941H274.7V68.6854H275.38ZM276.196 68.6854V69.0941H275.516V68.6854H276.196ZM277.011 68.6854V69.0941H276.332V68.6854H277.011ZM277.827 68.6854V69.0941H277.147V68.6854H277.827ZM278.643 68.6854V69.0941H277.963V68.6854H278.643ZM279.459 68.6854V69.0941H278.779V68.6854H279.459ZM280.274 68.6854V69.0941H279.594V68.6854H280.274ZM281.09 68.6854V69.0941H280.41V68.6854H281.09ZM281.906 68.6854V69.0941H281.226V68.6854H281.906ZM282.721 68.6854V69.0941H282.042V68.6854H282.721ZM283.537 68.6854V69.0941H282.857V68.6854H283.537ZM284.353 68.6854V69.0941H283.673V68.6854H284.353ZM285.169 68.6854V69.0941H284.489V68.6854H285.169ZM285.984 68.6854V69.0941H285.305V68.6854H285.984ZM286.8 68.6854V69.0941H286.12V68.6854H286.8ZM287.616 68.6854V69.0941H286.936V68.6854H287.616ZM288.431 68.6854V69.0941H287.752V68.6854H288.431ZM289.247 68.6854V69.0941H288.567V68.6854H289.247ZM290.063 68.6854V69.0941H289.383V68.6854H290.063ZM290.879 68.6854V69.0941H290.199V68.6854H290.879ZM291.717 68.6854V69.0941H291.037V68.6854H291.717ZM292.533 68.6854V69.0941H291.853V68.6854H292.533ZM293.348 68.6854V69.0941H292.669V68.6854H293.348ZM294.164 68.6854V69.0941H293.484V68.6854H294.164ZM294.98 68.6854V69.0941H294.3V68.6854H294.98ZM295.796 68.6854V69.0941H295.116V68.6854H295.796ZM296.611 68.6854V69.0941H295.932V68.6854H296.611ZM297.427 68.6854V69.0941H296.747V68.6854H297.427ZM298.243 68.6854V69.0941H297.563V68.6854H298.243ZM299.059 68.6854V69.0941H298.379V68.6854H299.059ZM299.874 68.6854V69.0941H299.194V68.6854H299.874ZM300.69 68.6854V69.0941H300.01V68.6854H300.69ZM301.506 68.6854V69.0941H300.826V68.6854H301.506ZM302.321 68.6854V69.0941H301.642V68.6854H302.321ZM303.137 68.6854V69.0941H302.457V68.6854H303.137ZM303.953 68.6854V69.0941H303.273V68.6854H303.953ZM304.769 68.6854V69.0941H304.089V68.6854H304.769ZM305.584 68.6854V69.0941H304.905V68.6854H305.584ZM306.4 68.6854V69.0941H305.72V68.6854H306.4ZM307.216 68.6854V69.0941H306.536V68.6854H307.216ZM308.031 68.6854V69.0941H307.352V68.6854H308.031ZM308.847 68.6854V69.0941H308.167V68.6854H308.847ZM309.663 68.6854V69.0941H308.983V68.6854H309.663ZM310.479 68.6854V69.0941H309.799V68.6854H310.479ZM311.317 68.6854V69.0941H310.637V68.6854H311.317ZM312.133 68.6854V69.0941H311.453V68.6854H312.133ZM312.948 68.6854V69.0941H312.269V68.6854H312.948ZM313.22 69.0941H313.062V68.6854H313.628V69.2304H313.22V69.0941ZM313.628 70.0477H313.22V69.3666H313.628V70.0477ZM313.628 70.865H313.22V70.1839H313.628V70.865ZM313.628 71.6824H313.22V71.0013H313.628V71.6824ZM313.628 72.4997H313.22V71.8186H313.628V72.4997ZM313.628 73.3171H313.22V72.636H313.628V73.3171ZM313.628 74.1344H313.22V73.4533H313.628V74.1344ZM313.628 74.9518H313.22V74.2707H313.628V74.9518ZM313.628 75.7691H313.22V75.088H313.628V75.7691ZM313.628 76.5865H313.22V75.9053H313.628V76.5865ZM313.628 77.4038H313.22V76.7227H313.628V77.4038ZM313.628 78.2212H313.22V77.54H313.628V78.2212ZM313.628 79.0385H313.22V78.3574H313.628V79.0385ZM313.628 79.8559H313.22V79.1747H313.628V79.8559ZM313.628 80.6732H313.22V79.9921H313.628V80.6732ZM313.628 81.4906H313.22V80.8094H313.628V81.4906ZM313.628 82.3079H313.22V81.6268H313.628V82.3079ZM313.628 83.1253H313.22V82.4441H313.628V83.1253ZM313.628 83.9426H313.22V83.2615H313.628V83.9426ZM313.628 84.7599H313.22V84.0788H313.628V84.7599ZM313.628 85.5773H313.22V84.8962H313.628V85.5773ZM313.628 86.3946H313.22V85.7135H313.628V86.3946ZM313.628 87.212H313.22V86.5309H313.628V87.212ZM313.628 88.0293H313.22V87.3482H313.628V88.0293ZM313.628 88.8694H313.22V88.1883H313.628V88.8694ZM313.628 89.6867H313.22V89.0056H313.628V89.6867ZM313.628 90.5041H313.22V89.823H313.628V90.5041ZM313.628 91.3214H313.22V90.6403H313.628V91.3214ZM313.628 92.1388H313.22V91.4576H313.628V92.1388ZM313.628 92.9561H313.22V92.275H313.628V92.9561ZM313.628 93.7735H313.22V93.0923H313.628V93.7735ZM313.628 94.5908H313.22V93.9097H313.628V94.5908ZM313.628 95.4082H313.22V94.727H313.628V95.4082ZM313.628 96.2255H313.22V95.5444H313.628V96.2255ZM313.628 97.0429H313.22V96.3617H313.628V97.0429ZM313.628 97.8602H313.22V97.1791H313.628V97.8602ZM313.628 98.6775H313.22V97.9964H313.628V98.6775ZM313.628 99.4949H313.22V98.8138H313.628V99.4949ZM313.628 100.312H313.22V99.6311H313.628V100.312ZM313.628 101.13H313.22V100.448H313.628V101.13ZM313.628 101.947H313.22V101.266H313.628V101.947ZM313.628 102.764H313.22V102.083H313.628V102.764ZM313.628 103.582H313.22V102.901H313.628V103.582ZM313.628 104.399H313.22V103.718H313.628V104.399ZM313.628 105.216H313.22V104.535H313.628V105.216ZM313.628 106.034H313.22V105.353H313.628V106.034ZM313.628 106.851H313.22V106.17H313.628V106.851ZM313.628 107.668H313.22V106.987H313.628V107.668ZM313.628 108.486H313.22V107.805H313.628V108.486ZM313.628 109.326H313.22V108.645H313.628V109.326ZM313.628 110.143H313.22V109.462H313.628V110.143ZM313.628 110.96H313.22V110.279H313.628V110.96ZM313.628 111.778H313.22V111.097H313.628V111.778ZM313.628 112.595H313.22V111.914H313.628V112.595ZM313.628 113.412H313.22V112.731H313.628V113.412ZM313.628 114.23H313.22V113.549H313.628V114.23ZM311.748 115.206V114.797H312.427V115.206H311.748ZM310.932 115.206V114.797H311.612V115.206H310.932ZM310.116 115.206V114.797H310.796V115.206H310.116ZM309.3 115.206V114.797H309.98V115.206H309.3ZM308.485 115.206V114.797H309.164V115.206H308.485ZM307.669 115.206V114.797H308.349V115.206H307.669ZM306.853 115.206V114.797H307.533V115.206H306.853ZM306.038 115.206V114.797H306.717V115.206H306.038ZM305.222 115.206V114.797H305.902V115.206H305.222ZM304.406 115.206V114.797H305.086V115.206H304.406ZM303.59 115.206V114.797H304.27V115.206H303.59ZM302.775 115.206V114.797H303.454V115.206H302.775ZM301.959 115.206V114.797H302.639V115.206H301.959ZM301.143 115.206V114.797H301.823V115.206H301.143ZM300.327 115.206V114.797H301.007V115.206H300.327ZM299.512 115.206V114.797H300.191V115.206H299.512ZM298.696 115.206V114.797H299.376V115.206H298.696ZM297.88 115.206V114.797H298.56V115.206H297.88ZM297.042 115.206V114.797H297.722V115.206H297.042ZM296.226 115.206V114.797H296.906V115.206H296.226ZM295.41 115.206V114.797H296.09V115.206H295.41ZM294.595 115.206V114.797H295.274V115.206H294.595ZM293.779 115.206V114.797H294.459V115.206H293.779ZM292.963 115.206V114.797H293.643V115.206H292.963ZM292.148 115.206V114.797H292.827V115.206H292.148ZM291.332 115.206V114.797H292.012V115.206H291.332ZM290.516 115.206V114.797H291.196V115.206H290.516ZM289.7 115.206V114.797H290.38V115.206H289.7ZM288.885 115.206V114.797H289.564V115.206H288.885ZM288.069 115.206V114.797H288.749V115.206H288.069ZM287.253 115.206V114.797H287.933V115.206H287.253ZM286.437 115.206V114.797H287.117V115.206H286.437ZM285.622 115.206V114.797H286.302V115.206H285.622ZM284.806 115.206V114.797H285.486V115.206H284.806ZM283.99 115.206V114.797H284.67V115.206H283.99ZM283.175 115.206V114.797H283.854V115.206H283.175ZM282.359 115.206V114.797H283.039V115.206H282.359ZM281.543 115.206V114.797H282.223V115.206H281.543ZM280.727 115.206V114.797H281.407V115.206H280.727ZM279.912 115.206V114.797H280.591V115.206H279.912ZM279.096 115.206V114.797H279.776V115.206H279.096ZM278.28 115.206V114.797H278.96V115.206H278.28ZM277.442 115.206V114.797H278.122V115.206H277.442ZM276.626 115.206V114.797H277.306V115.206H276.626ZM275.81 115.206V114.797H276.49V115.206H275.81ZM274.995 115.206V114.797H275.674V115.206H274.995ZM274.179 115.206V114.797H274.859V115.206H274.179ZM273.363 115.206V114.797H274.043V115.206H273.363ZM272.548 115.206V114.797H273.227V115.206H272.548ZM271.732 115.206V114.797H272.412V115.206H271.732ZM270.916 115.206V114.797H271.596V115.206H270.916ZM270.1 115.206V114.797H270.78V115.206H270.1ZM269.285 115.206V114.797H269.964V115.206H269.285ZM268.469 115.206V114.797H269.149V115.206H268.469ZM267.653 115.206V114.797H268.333V115.206H267.653ZM266.837 115.206V114.797H267.517V115.206H266.837ZM266.022 115.206V114.797H266.702V115.206H266.022ZM265.206 115.206V114.797H265.886V115.206H265.206ZM264.39 115.206V114.797H265.07V115.206H264.39ZM263.575 115.206V114.797H264.254V115.206H263.575ZM262.759 115.206V114.797H263.439V115.206H262.759ZM261.943 115.206V114.797H262.623V115.206H261.943ZM261.127 115.206V114.797H261.807V115.206H261.127ZM260.312 115.206V114.797H260.991V115.206H260.312ZM259.496 115.206V114.797H260.176V115.206H259.496ZM258.68 115.206V114.797H259.36V115.206H258.68ZM257.842 115.206V114.797H258.522V115.206H257.842ZM257.729 115.07V115.206H257.411V114.434H257.819V115.07H257.729ZM257.389 113.617H257.797V114.298H257.389V113.617ZM257.389 112.799H257.797V113.481H257.389V112.799ZM257.389 111.982H257.797V112.663H257.389V111.982ZM257.389 111.165H257.797V111.846H257.389V111.165ZM257.389 110.347H257.797V111.029H257.389V110.347ZM257.389 109.53H257.797V110.211H257.389V109.53ZM257.389 108.69H257.797V109.371H257.389V108.69ZM257.389 107.873H257.797V108.554H257.389V107.873ZM257.389 107.055H257.797V107.736H257.389V107.055ZM257.389 106.238H257.797V106.919H257.389V106.238ZM257.389 105.421H257.797V106.102H257.389V105.421ZM257.389 104.603H257.797V105.284H257.389V104.603ZM257.389 103.786H257.797V104.467H257.389V103.786ZM257.389 102.969H257.797V103.65H257.389V102.969ZM257.389 102.151H257.797V102.832H257.389V102.151ZM257.389 101.334H257.797V102.015H257.389V101.334ZM257.389 100.517H257.797V101.198H257.389V100.517ZM257.389 99.6992H257.797V100.38H257.389V99.6992ZM257.389 98.8819H257.797V99.563H257.389V98.8819ZM257.389 98.0645H257.797V98.7457H257.389V98.0645ZM257.389 97.2472H257.797V97.9283H257.389V97.2472ZM257.389 96.4298H257.797V97.111H257.389V96.4298ZM257.389 95.6125H257.797V96.2936H257.389V95.6125ZM257.389 94.7951H257.797V95.4763H257.389V94.7951ZM257.389 93.9778H257.797V94.6589H257.389V93.9778ZM257.389 93.1604H257.797V93.8416H257.389V93.1604ZM257.389 92.3431H257.797V93.0242H257.389V92.3431ZM257.389 91.5258H257.797V92.2069H257.389V91.5258ZM257.389 90.7084H257.797V91.3895H257.389V90.7084ZM257.389 89.8911H257.797V90.5722H257.389V89.8911ZM257.389 89.051H257.797V89.7321H257.389V89.051ZM257.389 88.2337H257.797V88.9148H257.389V88.2337ZM257.389 87.4163H257.797V88.0974H257.389V87.4163ZM257.389 86.599H257.797V87.2801H257.389V86.599ZM257.389 85.7816H257.797V86.4627H257.389V85.7816ZM257.389 84.9643H257.797V85.6454H257.389V84.9643ZM257.389 84.1469H257.797V84.8281H257.389V84.1469ZM257.389 83.3296H257.797V84.0107H257.389V83.3296ZM257.389 82.5122H257.797V83.1934H257.389V82.5122ZM257.389 81.6949H257.797V82.376H257.389V81.6949ZM257.389 80.8775H257.797V81.5587H257.389V80.8775ZM257.389 80.0602H257.797V80.7413H257.389V80.0602ZM257.389 79.2428H257.797V79.924H257.389V79.2428ZM257.389 78.4255H257.797V79.1066H257.389V78.4255ZM257.389 77.6081H257.797V78.2893H257.389V77.6081ZM257.389 76.7908H257.797V77.4719H257.389V76.7908ZM257.389 75.9735H257.797V76.6546H257.389V75.9735ZM257.389 75.1561H257.797V75.8372H257.389V75.1561ZM257.389 74.3388H257.797V75.0199H257.389V74.3388ZM257.389 73.5214H257.797V74.2025H257.389V73.5214ZM257.389 72.7041H257.797V73.3852H257.389V72.7041ZM257.389 71.8867H257.797V72.5678H257.389V71.8867ZM257.389 71.0694H257.797V71.7505H257.389V71.0694ZM257.389 70.252H257.797V70.9332H257.389V70.252ZM257.389 69.412H257.797V70.0931H257.389V69.412ZM257.819 69.0941V69.2985H257.411V68.6854H258.227V69.0941H257.819ZM313.22 114.797V114.366H313.628V115.047H313.243V115.206H312.563V114.797H313.22Z" fill="white"/>
<path fill-rule="evenodd" clip-rule="evenodd" d="M271.505 91.2306H274.745V86.0995H284.375V91.2306H287.706L279.617 99.9036L271.505 91.2306Z" fill="white"/>
<path d="M277.216 65.8247H213.975V118.067H277.216V65.8247Z" fill="url(#paint4_linear)"/>
<path d="M249.231 138.251V138.932H247.871V138.251H249.231ZM251.27 138.251V138.932H249.911V138.251H251.27ZM253.31 138.251V138.932H251.95V138.251H253.31ZM255.349 138.251V138.932H253.989V138.251H255.349ZM257.388 138.251V138.932H256.029V138.251H257.388ZM259.427 138.251V138.932H258.068V138.251H259.427ZM261.489 138.251V138.932H260.13V138.251H261.489ZM263.529 138.251V138.932H262.169V138.251H263.529ZM265.568 138.251V138.932H264.209V138.251H265.568ZM267.607 138.251V138.932H266.248V138.251H267.607ZM269.647 138.251V138.932H268.287V138.251H269.647ZM271.686 138.251V138.932H270.326V138.251H271.686ZM273.725 138.251V138.932H272.366V138.251H273.725ZM275.765 138.251V138.932H274.405V138.251H275.765ZM277.804 138.251V138.932H276.444V138.251H277.804ZM279.866 138.251V138.932H278.506V138.251H279.866ZM281.905 138.251V138.932H280.546V138.251H281.905ZM283.945 138.251V138.932H282.585V138.251H283.945ZM285.984 138.251V138.932H284.624V138.251H285.984ZM288.023 138.251V138.932H286.664V138.251H288.023ZM290.062 138.251V138.932H288.703V138.251H290.062ZM292.102 138.251V138.932H290.742V138.251H292.102ZM294.141 138.251V138.932H292.782V138.251H294.141ZM296.18 138.251V138.932H294.821V138.251H296.18ZM298.22 138.251V138.932H296.86V138.251H298.22ZM300.282 138.251V138.932H298.922V138.251H300.282ZM302.321 138.251V138.932H300.961V138.251H302.321ZM304.36 138.251V138.932H303.001V138.251H304.36ZM306.4 138.251V138.932H305.04V138.251H306.4ZM308.439 138.251V138.932H307.079V138.251H308.439ZM310.478 138.251V138.932H309.119V138.251H310.478ZM312.518 138.251V138.932H311.158V138.251H312.518ZM313.718 139.772H313.039V138.591H313.197V138.251H313.379H313.718V138.591V139.772ZM313.718 141.815H313.039V140.453H313.718V141.815ZM313.718 143.881H313.039V142.519H313.718V143.881ZM313.718 145.925H313.039V144.563H313.718V145.925ZM313.718 147.968H313.039V146.606H313.718V147.968ZM313.718 150.012H313.039V148.649H313.718V150.012ZM313.718 152.055H313.039V150.693H313.718V152.055ZM313.718 154.098H313.039V152.736H313.718V154.098ZM313.718 156.142H313.039V154.779H313.718V156.142ZM313.718 158.185H313.039V156.823H313.718V158.185ZM313.718 160.228H313.039V158.866H313.718V160.228ZM313.718 162.272H313.039V160.909H313.718V162.272ZM313.718 164.338H313.039V162.976H313.718V164.338ZM313.718 166.381H313.039V165.019H313.718V166.381ZM312.359 167.743V167.062H313.039H313.718V167.403V167.743H313.379H312.359ZM310.32 167.743V167.062H311.679V167.743H310.32ZM308.28 167.743V167.062H309.64V167.743H308.28ZM306.241 167.743V167.062H307.601V167.743H306.241ZM304.202 167.743V167.062H305.561V167.743H304.202ZM302.162 167.743V167.062H303.522V167.743H302.162ZM300.123 167.743V167.062H301.483V167.743H300.123ZM298.084 167.743V167.062H299.443V167.743H298.084ZM296.044 167.743V167.062H297.404V167.743H296.044ZM294.005 167.743V167.062H295.365V167.743H294.005ZM291.943 167.743V167.062H293.303V167.743H291.943ZM289.904 167.743V167.062H291.263V167.743H289.904ZM287.865 167.743V167.062H289.224V167.743H287.865ZM285.825 167.743V167.062H287.185V167.743H285.825ZM283.786 167.743V167.062H285.145V167.743H283.786ZM281.747 167.743V167.062H283.106V167.743H281.747ZM279.707 167.743V167.062H281.067V167.743H279.707ZM277.668 167.743V167.062H279.028V167.743H277.668ZM275.629 167.743V167.062H276.988V167.743H275.629ZM273.589 167.743V167.062H274.949V167.743H273.589ZM271.527 167.743V167.062H272.887V167.743H271.527ZM269.488 167.743V167.062H270.848V167.743H269.488ZM267.449 167.743V167.062H268.808V167.743H267.449ZM265.409 167.743V167.062H266.769V167.743H265.409ZM263.37 167.743V167.062H264.73V167.743H263.37ZM261.331 167.743V167.062H262.69V167.743H261.331ZM259.292 167.743V167.062H260.651V167.743H259.292ZM257.252 167.743V167.062H258.612V167.743H257.252ZM255.213 167.743V167.062H256.572V167.743H255.213ZM253.174 167.743V167.062H254.533V167.743H253.174ZM251.112 167.743V167.062H252.471V167.743H251.112ZM249.072 167.743V167.062H250.432V167.743H249.072ZM247.033 167.743V167.062H248.393V167.743H247.033ZM245.492 166.563H246.172V167.062H246.353V167.743H245.832H245.492V167.403V166.563ZM245.492 164.519H246.172V165.882H245.492V164.519ZM245.492 162.476H246.172V163.838H245.492V162.476ZM245.492 160.433H246.172V161.795H245.492V160.433ZM245.492 158.389H246.172V159.752H245.492V158.389ZM245.492 156.346H246.172V157.708H245.492V156.346ZM245.492 154.303H246.172V155.665H245.492V154.303ZM245.492 152.237H246.172V153.599H245.492V152.237ZM245.492 150.193H246.172V151.555H245.492V150.193ZM245.492 148.15H246.172V149.512H245.492V148.15ZM245.492 146.106H246.172V147.469H245.492V146.106ZM245.492 144.063H246.172V145.425H245.492V144.063ZM245.492 142.02H246.172V143.382H245.492V142.02ZM245.492 139.976H246.172V141.339H245.492V139.976ZM247.192 138.251V138.932H246.172V139.272H245.492V138.591V138.251H245.832H247.192Z" fill="white"/>
<path d="M257.797 138.024H190.228V167.97H257.797V138.024Z" fill="#35A2F1"/>
<path fill-rule="evenodd" clip-rule="evenodd" d="M186.851 165.972L187.916 166.313L190.318 165.882C190.59 165.768 192.335 165.359 191.859 165.927C191.542 166.336 190.522 166.994 190.545 167.04C190.862 167.63 194.102 168.493 194.147 168.561C194.601 169.31 192.516 168.856 192.153 168.81C192.063 168.788 193.536 169.423 193.468 169.492C193.377 169.56 193.173 169.764 192.788 169.696C192.312 169.605 191.496 169.31 191.406 169.378C191.315 169.446 192.742 170.059 192.629 170.127C192.561 170.173 192.403 170.264 192.108 170.218C191.61 170.105 190.884 169.787 190.771 169.855C190.635 169.9 191.7 170.286 191.587 170.309C191.496 170.332 191.474 170.513 191.383 170.491C188.868 170.15 188.913 168.879 186.035 168.561C184.427 168.402 186.307 166.2 186.851 165.972Z" fill="#F7CCCF"/>
<path fill-rule="evenodd" clip-rule="evenodd" d="M256.437 188.404H253.944V180.866H256.437V188.404ZM252.018 188.404H249.526V180.004H252.018V188.404ZM247.6 188.404H245.107V182.456H247.6V188.404ZM265.704 188.404H263.212V173.26H265.704V188.404ZM279.119 188.404H276.626V180.866H279.119V188.404ZM274.7 188.404H272.208V174.736H274.7V188.404ZM270.282 188.404H267.789V182.456H270.282V188.404ZM288.386 188.404H285.894V173.26H288.386V188.404ZM283.537 188.404H281.045V176.893H283.537V188.404ZM260.855 188.404H258.363V176.893H260.855V188.404Z" fill="#E4F5FB"/>
<path fill-rule="evenodd" clip-rule="evenodd" d="M274.292 152.236H276.399V148.876H282.744V152.236H284.919L279.617 157.913L274.292 152.236Z" fill="white"/>
<path d="M267.993 122.676H244.654V124.265H267.993V122.676Z" fill="#008EF4"/>
<path d="M293.778 122.676H270.439V124.265H293.778V122.676Z" fill="#008EF4"/>
<path d="M313.719 122.676H296.589V128.738H313.719V122.676Z" fill="white"/>
<path d="M278.756 127.148H244.654V128.738H278.756V127.148Z" fill="white"/>
<path d="M293.779 127.148H281.203V128.738H293.779V127.148Z" fill="#008EF4"/>
<path d="M313.719 127.148H296.589V128.738H313.719V127.148Z" fill="white"/>
<path d="M261.716 131.803H244.654V133.392H261.716V131.803Z" fill="white"/>
<path d="M293.779 131.803H264.073V133.392H293.779V131.803Z" fill="white"/>
<path d="M313.719 131.803H296.589V133.392H313.719V131.803Z" fill="white"/>
<path d="M296.136 174.85H293.031V177.96H296.136V174.85Z" fill="#E4F5FB"/>
<path d="M296.136 180.162H293.031V183.273H296.136V180.162Z" fill="#E4F5FB"/>
<path d="M296.136 185.452H293.031V188.563H296.136V185.452Z" fill="#E4F5FB"/>
<path fill-rule="evenodd" clip-rule="evenodd" d="M314.059 175.554H298.356C297.948 175.554 297.608 175.917 297.608 176.371C297.608 176.825 297.948 177.188 298.356 177.188H314.059C314.467 177.188 314.807 176.825 314.807 176.371C314.807 175.917 314.467 175.554 314.059 175.554Z" fill="#E4F5FB"/>
<path fill-rule="evenodd" clip-rule="evenodd" d="M314.059 180.889H298.356C297.948 180.889 297.608 181.252 297.608 181.706C297.608 182.16 297.948 182.524 298.356 182.524H314.059C314.467 182.524 314.807 182.16 314.807 181.706C314.807 181.252 314.467 180.889 314.059 180.889Z" fill="#E4F5FB"/>
<path fill-rule="evenodd" clip-rule="evenodd" d="M314.059 186.202H298.356C297.948 186.202 297.608 186.565 297.608 187.019C297.608 187.473 297.948 187.836 298.356 187.836H314.059C314.467 187.836 314.807 187.473 314.807 187.019C314.807 186.565 314.467 186.202 314.059 186.202Z" fill="#E4F5FB"/>
<path d="M273.545 145.403V145.879H273.069V145.403H273.545ZM274.497 145.403V145.879H274.021V145.403H274.497ZM275.471 145.403V145.879H274.995V145.403H275.471ZM276.423 145.403V145.879H275.947V145.403H276.423ZM277.397 145.403V145.879H276.921V145.403H277.397ZM278.349 145.403V145.879H277.873V145.403H278.349ZM279.301 145.403V145.879H278.825V145.403H279.301ZM280.275 145.403V145.879H279.799V145.403H280.275ZM281.227 145.403V145.879H280.751V145.403H281.227ZM282.178 145.403V145.879H281.702V145.403H282.178ZM283.153 145.403V145.879H282.677V145.403H283.153ZM284.104 145.403V145.879H283.628V145.403H284.104ZM285.079 145.403V145.879H284.603V145.403H285.079ZM286.03 145.403V145.879H285.554V145.403H286.03ZM286.982 145.403V145.879H286.506V145.403H286.982ZM288.002 145.516L287.888 145.97H287.866H287.843H287.82H287.798H287.775H287.752H287.73H287.707H287.684H287.662H287.639H287.616H287.594H287.571H287.548H287.526H287.503H287.48H287.458H287.435H287.412H287.39H287.367H287.344L287.39 145.493H287.412H287.435H287.458H287.48H287.503H287.526H287.548H287.571H287.594H287.616H287.639H287.662H287.684H287.707H287.73H287.752H287.775H287.798H287.82H287.843H287.866H287.888H287.911L288.002 145.516ZM288.953 145.947L288.704 146.356H288.681H288.659H288.636H288.613H288.591H288.568H288.545H288.523H288.5H288.477H288.455H288.432H288.409H288.387H288.364H288.341H288.319H288.296H288.273H288.251H288.228H288.205H288.183H288.16H288.138L288.341 145.925H288.364H288.387H288.409H288.432H288.455H288.477H288.5H288.523H288.545H288.568H288.591H288.613H288.636H288.659H288.681H288.704H288.727H288.749H288.772H288.795H288.817H288.84H288.863L288.953 145.947ZM289.724 146.629L289.361 146.946L289.338 146.924V146.901L289.316 146.878L289.293 146.856V146.833V146.81L289.27 146.788L289.248 146.765V146.742L289.225 146.719L289.202 146.697L289.18 146.674L289.157 146.651L289.135 146.629L289.112 146.606L289.089 146.583L289.067 146.56L289.044 146.538L289.021 146.515H288.999L288.976 146.492L288.953 146.47H288.931L289.248 146.106L289.27 146.129L289.293 146.152L289.316 146.175L289.338 146.197L289.361 146.22L289.384 146.243L289.406 146.265L289.429 146.288L289.452 146.311L289.474 146.333L289.497 146.356L289.52 146.379L289.542 146.402L289.565 146.424L289.588 146.447L289.61 146.47L289.633 146.492L289.656 146.515L289.678 146.538L289.701 146.56L289.724 146.583L289.746 146.606L289.769 146.629H289.724ZM290.245 147.514L289.792 147.696V147.673V147.65V147.628V147.605V147.582V147.559V147.537V147.514V147.491V147.469V147.446V147.423V147.401V147.378V147.355V147.332V147.31V147.287V147.264V147.242V147.219V147.196V147.173V147.151V147.128L290.199 146.878V146.901V146.924V146.946V146.969V146.992V147.015V147.037V147.06V147.083V147.105V147.128V147.151V147.173V147.196V147.219V147.242V147.264V147.287V147.31V147.332V147.355V147.378V147.401V147.423L290.245 147.514ZM290.494 148.513L290.018 148.558V148.536V148.513V148.49V148.468V148.445V148.422V148.4V148.377V148.354V148.331V148.309V148.286V148.263V148.241V148.218V148.195V148.172V148.15V148.127V148.104V148.082V148.059V148.036V148.014L290.494 147.9V147.923V147.945V147.968V147.991V148.014V148.036V148.059V148.082V148.104V148.127V148.15V148.172V148.195V148.218V148.241V148.263V148.286V148.309V148.331V148.354V148.377V148.4V148.422V148.513ZM290.517 149.489H290.041V149.013H290.517V149.489ZM290.517 150.443H290.041V149.966H290.517V150.443ZM290.517 151.419H290.041V150.942H290.517V151.419ZM290.517 152.373H290.041V151.896H290.517V152.373ZM290.517 153.349H290.041V152.849H290.517V153.349ZM290.517 154.303H290.041V153.826H290.517V154.303ZM290.517 155.256H290.041V154.779H290.517V155.256ZM290.517 156.232H290.041V155.756H290.517V156.232ZM290.517 157.186H290.041V156.709H290.517V157.186ZM290.358 158.208L289.905 158.071V158.049V158.026V158.003V157.981V157.958V157.935V157.912V157.89V157.867V157.844V157.822V157.799V157.776V157.754V157.731V157.708V157.685V157.663V157.64V157.617V157.595V157.572V157.549V157.527L290.381 157.595V157.617V157.64V157.663V157.685V157.708V157.731V157.754V157.776V157.799V157.822V157.844V157.867V157.89V157.912V157.935V157.958V157.981V158.003V158.026V158.049V158.071V158.094V158.117L290.358 158.208ZM289.905 159.139L289.52 158.866V158.843V158.821V158.798V158.775V158.753V158.73V158.707V158.684V158.662V158.639V158.616V158.594V158.571V158.548V158.525V158.503V158.48V158.457V158.435V158.412V158.389V158.367V158.344V158.321V158.298L289.95 158.503V158.525V158.548V158.571V158.594V158.616V158.639V158.662V158.684V158.707V158.73V158.753V158.775V158.798V158.821V158.843V158.866V158.889L289.928 158.911V158.934L289.905 158.957V158.98V159.002L289.882 159.025L289.905 159.139ZM289.202 159.888L288.908 159.502H288.931H288.953H288.976H288.999H289.021L289.044 159.479L289.067 159.456L289.089 159.434L289.112 159.411H289.135L289.157 159.388L289.18 159.366L289.202 159.343H289.225L289.248 159.32L289.27 159.297L289.293 159.275L289.316 159.252L289.338 159.229L289.361 159.207L289.384 159.184L289.406 159.161L289.746 159.502L289.724 159.524L289.701 159.547L289.678 159.57L289.656 159.593L289.633 159.615L289.61 159.638L289.588 159.661L289.565 159.683L289.542 159.706L289.52 159.729L289.497 159.752L289.474 159.774L289.452 159.797L289.429 159.82L289.406 159.842L289.384 159.865L289.361 159.888L289.338 159.91L289.316 159.933L289.293 159.956L289.27 159.979L289.248 160.001L289.225 160.024L289.202 159.888ZM288.296 160.387L288.115 159.933H288.138H288.16H288.183H288.205H288.228H288.251H288.273H288.296H288.319H288.341H288.364H288.387H288.409H288.432H288.455H288.477H288.5H288.523H288.545H288.568H288.591H288.613H288.636H288.659H288.681L288.908 160.342H288.885H288.863H288.84H288.817H288.795H288.772H288.749H288.727H288.704H288.681H288.659H288.636H288.613H288.591H288.568H288.545H288.523H288.5H288.477H288.455H288.432H288.409H288.387L288.296 160.387ZM287.299 160.592L287.276 160.115H287.299H287.322H287.344H287.367H287.39H287.412H287.435H287.458H287.48H287.503H287.526H287.548H287.571H287.594H287.616H287.639H287.662H287.684H287.707H287.73H287.752H287.775H287.798H287.82L287.911 160.592H287.888H287.866H287.843H287.82H287.798H287.775H287.752H287.73H287.707H287.684H287.662H287.639H287.616H287.594H287.571H287.548H287.526H287.503H287.48H287.458H287.435H287.412H287.299ZM286.325 160.592V160.115H286.801V160.592H286.325ZM285.35 160.592V160.115H285.826V160.592H285.35ZM284.399 160.592V160.115H284.875V160.592H284.399ZM283.424 160.592V160.115H283.9V160.592H283.424ZM282.473 160.592V160.115H282.949V160.592H282.473ZM281.521 160.592V160.115H281.997V160.592H281.521ZM280.547 160.592V160.115H281.023V160.592H280.547ZM279.595 160.592V160.115H280.071V160.592H279.595ZM278.643 160.592V160.115H279.119V160.592H278.643ZM277.669 160.592V160.115H278.145V160.592H277.669ZM276.717 160.592V160.115H277.193V160.592H276.717ZM275.743 160.592V160.115H276.219V160.592H275.743ZM274.791 160.592V160.115H275.267V160.592H274.791ZM273.84 160.592V160.115H274.316V160.592H273.84ZM272.865 160.592V160.115H273.341V160.592H272.865ZM271.891 160.592L271.914 160.115H271.936H271.959H271.982H272.004H272.027H272.05H272.072H272.095H272.118H272.14H272.435V160.592H272.14H272.118H272.095H272.072H272.05H272.027H272.004H271.982H271.959H271.891ZM270.894 160.365L271.075 159.91H271.098H271.121H271.143H271.166H271.189H271.211H271.234H271.257H271.279H271.302H271.325H271.347H271.37H271.393H271.415H271.438H271.46H271.483H271.506H271.528H271.551H271.574H271.596H271.619L271.528 160.387H271.506H271.483H271.46H271.438H271.415H271.393H271.37H271.347H271.325H271.302H271.279H271.257H271.234H271.211H271.189H271.166H271.143H271.121H271.098H271.075H271.053H271.03H271.007L270.894 160.365ZM269.988 159.865L270.282 159.479H270.305H270.328H270.35L270.373 159.502H270.396H270.418H270.441H270.464H270.486H270.509H270.531H270.554H270.577H270.599H270.622H270.645H270.667H270.69H270.713H270.735H270.758H270.781H270.803H270.826H270.849L270.622 159.91H270.599H270.577H270.554H270.531H270.509H270.486L270.464 159.888H270.441H270.418H270.396H270.373L270.35 159.865L270.328 159.842L270.305 159.82L270.282 159.797H270.26H270.237L270.214 159.774L270.192 159.752L270.169 159.729L270.146 159.706L270.124 159.683L270.101 159.661L269.988 159.865ZM269.308 159.116L269.693 158.843V158.866V158.889L269.716 158.911V158.934V158.957V158.98V159.002V159.025L269.738 159.048V159.07V159.093V159.116V159.139V159.161V159.184V159.207L269.761 159.229V159.252L269.784 159.275L269.806 159.297V159.32L269.829 159.343L269.852 159.366L269.512 159.683L269.489 159.661L269.467 159.638L269.444 159.615L269.421 159.593L269.399 159.57L269.376 159.547L269.353 159.524L269.331 159.502L269.308 159.479L269.285 159.456L269.263 159.434L269.24 159.411L269.217 159.388L269.195 159.366L269.172 159.343L269.149 159.32L269.127 159.297L269.104 159.275L269.081 159.252L269.059 159.229L269.036 159.207V159.184L269.013 159.161L268.991 159.139L269.308 159.116ZM268.855 158.185L269.308 158.049V158.071V158.094V158.117V158.14V158.162V158.185V158.208V158.23V158.253V158.276V158.298V158.321V158.344V158.367V158.389V158.412V158.435V158.457V158.48V158.503V158.525V158.548V158.571V158.594L268.877 158.798V158.775V158.753V158.73V158.707V158.684V158.662V158.639V158.616V158.594V158.571V158.548V158.525V158.503V158.48V158.457V158.435V158.412V158.389V158.367V158.344V158.321V158.298V158.276L268.855 158.185ZM268.719 157.163H269.195V157.209V157.231V157.254V157.277V157.299V157.322V157.345V157.368V157.39V157.413V157.436V157.458V157.481V157.504V157.527V157.549V157.572V157.595V157.617V157.64V157.663V157.685V157.708L268.719 157.776V157.754V157.731V157.708V157.685V157.663V157.64V157.617V157.595V157.572V157.549V157.527V157.504V157.481V157.458V157.436V157.413V157.39V157.368V157.345V157.322V157.299V157.277V157.163ZM268.719 156.187H269.195V156.664H268.719V156.187ZM268.719 155.233H269.195V155.71H268.719V155.233ZM268.719 154.28H269.195V154.757H268.719V154.28ZM268.719 153.304H269.195V153.78H268.719V153.304ZM268.719 152.35H269.195V152.827H268.719V152.35ZM268.719 151.374H269.195V151.851H268.719V151.374ZM268.719 150.42H269.195V150.897H268.719V150.42ZM268.719 149.467H269.195V149.943H268.719V149.467ZM268.719 148.468L269.195 148.513V148.536V148.558V148.581V148.604V148.627V148.649V148.672V148.695V148.717V148.74V148.763V148.785V148.808V148.831V148.854V149.035H268.719V148.854V148.831V148.763V148.74V148.717V148.695V148.672V148.649V148.627V148.604V148.581V148.558V148.536V148.513V148.49V148.468ZM268.991 147.469L269.444 147.65V147.673V147.696V147.718V147.741V147.764V147.786V147.809V147.832V147.855V147.877V147.9V147.923V147.945V147.968V147.991V148.014V148.036V148.059V148.082V148.104V148.127V148.15V148.172V148.195L268.968 148.082V148.059V148.036V148.014V147.991V147.968V147.945V147.923V147.9V147.877V147.855V147.832V147.809V147.786V147.764V147.741V147.718V147.696V147.673V147.65V147.628V147.605V147.582V147.559V147.537L268.991 147.469ZM269.512 146.606L269.874 146.924L269.852 146.946V146.969V146.992V147.015V147.037V147.06V147.083V147.105L269.829 147.128V147.151V147.173V147.196V147.219V147.242L269.806 147.264V147.287V147.31V147.332V147.355V147.378V147.401V147.423V147.446V147.469L269.399 147.219L269.421 147.196V147.173L269.444 147.151V147.128V147.105L269.467 147.083L269.489 147.06V147.037L269.512 147.015L269.534 146.992V146.969L269.557 146.946L269.58 146.924L269.602 146.901L269.625 146.878L269.648 146.856L269.67 146.833L269.693 146.81L269.716 146.788L269.738 146.765L269.761 146.742L269.784 146.719L269.806 146.697L269.512 146.606ZM270.305 145.925L270.554 146.333H270.531H270.509H270.486H270.464H270.441H270.418H270.396H270.373H270.35H270.328H270.305H270.282H270.26H270.237L270.214 146.356H270.192H270.169H270.146H270.124H270.101H270.078H270.056L270.033 146.379L270.01 146.402L269.988 146.424L269.67 146.061L269.693 146.038L269.716 146.016L269.738 145.993L269.761 145.97L269.784 145.947L269.806 145.925L269.829 145.902L269.852 145.879L269.874 145.857L269.897 145.834L269.92 145.811L269.942 145.789L269.965 145.766L269.988 145.743L270.01 145.72H270.033H270.056L270.078 145.698H270.101L270.124 145.675L270.146 145.652H270.169H270.192L270.305 145.925ZM271.234 145.516L271.347 145.993H271.325H271.302H271.279H271.257H271.234H271.211H271.189H271.166H271.143H271.121H271.098H271.075H271.053H271.03H271.007H270.985H270.962H270.939H270.917H270.894H270.871H270.849H270.826H270.803L270.622 145.562H270.645H270.667H270.69H270.713H270.735H270.758H270.781H270.803H270.826H270.849H270.871H270.894H270.917H270.939H270.962H270.985H271.007H271.03H271.053H271.075H271.098H271.121H271.143H271.166L271.234 145.516ZM272.095 145.403H272.571H272.095ZM272.593 145.403V145.879H272.118V145.403H272.095H272.072H272.05H272.027H272.004H271.982H271.959H271.936H271.914H271.891H271.868H271.846H271.823H271.8H271.778H271.755L271.8 145.879H271.823H271.846H271.868H271.891H271.914H271.936H271.959H271.982H272.004H272.027H272.05H272.072H272.095H272.118H272.14H272.163" fill="white"/>
<path d="M219.05 68.7536V69.026H218.506V68.7536H219.05ZM219.866 68.7536V69.026H219.322V68.7536H219.866ZM220.682 68.7536V69.026H220.138V68.7536H220.682ZM221.497 68.7536V69.026H220.954V68.7536H221.497ZM222.313 68.7536V69.026H221.769V68.7536H222.313ZM223.129 68.7536V69.026H222.585V68.7536H223.129ZM223.945 68.7536V69.026H223.401V68.7536H223.945ZM224.76 68.7536V69.026H224.216V68.7536H224.76ZM225.576 68.7536V69.026H225.032V68.7536H225.576ZM226.392 68.7536V69.026H225.848V68.7536H226.392ZM227.207 68.7536V69.026H226.664V68.7536H227.207ZM228.023 68.7536V69.026H227.479V68.7536H228.023ZM228.839 68.7536V69.026H228.295V68.7536H228.839ZM229.655 68.7536V69.026H229.111V68.7536H229.655ZM230.47 68.7536V69.026H229.926V68.7536H230.47ZM231.286 68.7536V69.026H230.742V68.7536H231.286ZM232.102 68.7536V69.026H231.558V68.7536H232.102ZM232.917 68.7536V69.026H232.374V68.7536H232.917ZM233.733 68.7536V69.026H233.189V68.7536H233.733ZM234.549 68.7536V69.026H234.005V68.7536H234.549ZM235.365 68.7536V69.026H234.821V68.7536H235.365ZM236.203 68.7536V69.026H235.659V68.7536H236.203ZM237.019 68.7536V69.026H236.475V68.7536H237.019ZM237.834 68.7536V69.026H237.291V68.7536H237.834ZM238.65 68.7536V69.026H238.106V68.7536H238.65ZM239.466 68.7536V69.026H238.922V68.7536H239.466ZM240.282 68.7536V69.026H239.738V68.7536H240.282ZM241.097 68.7536V69.026H240.554V68.7536H241.097ZM241.913 68.7536V69.026H241.369V68.7536H241.913ZM242.729 68.7536V69.026H242.185V68.7536H242.729ZM243.545 68.7536V69.026H243.001V68.7536H243.545ZM244.36 68.7536V69.026H243.816V68.7536H244.36ZM245.176 68.7536V69.026H244.632V68.7536H245.176ZM245.992 68.7536V69.026H245.448V68.7536H245.992ZM246.807 68.7536V69.026H246.264V68.7536H246.807ZM247.623 68.7536V69.026H247.079V68.7536H247.623ZM248.439 68.7536V69.026H247.895V68.7536H248.439ZM249.255 68.7536V69.026H248.711V68.7536H249.255ZM250.07 68.7536V69.026H249.527V68.7536H250.07ZM250.886 68.7536V69.026H250.342V68.7536H250.886ZM251.702 68.7536V69.026H251.158V68.7536H251.702ZM252.518 68.7536V69.026H251.974V68.7536H252.518ZM253.333 68.7536V69.026H252.789V68.7536H253.333ZM254.149 68.7536V69.026H253.605V68.7536H254.149ZM254.965 68.7536V69.026H254.421V68.7536H254.965ZM255.803 68.7536V69.026H255.259V68.7536H255.803ZM256.619 68.7536V69.026H256.075V68.7536H256.619ZM257.435 68.7536V69.026H256.891V68.7536H257.435ZM258.25 68.7536V69.026H257.706V68.7536H258.25ZM259.066 68.7536V69.026H258.522V68.7536H259.066ZM259.882 68.7536V69.026H259.338V68.7536H259.882ZM260.697 68.7536V69.026H260.154V68.7536H260.697ZM261.513 68.7536V69.026H260.969V68.7536H261.513ZM262.329 68.7536V69.026H261.785V68.7536H262.329ZM263.145 68.7536V69.026H262.601V68.7536H263.145ZM263.96 68.7536V69.026H263.416V68.7536H263.96ZM264.776 68.7536V69.026H264.232V68.7536H264.776ZM265.592 68.7536V69.026H265.048V68.7536H265.592ZM266.407 68.7536V69.026H265.864V68.7536H266.407ZM267.223 68.7536V69.026H266.679V68.7536H267.223ZM268.039 68.7536V69.026H267.495V68.7536H268.039ZM268.855 68.7536V69.026H268.311V68.7536H268.855ZM269.67 68.7536V69.026H269.127V68.7536H269.67ZM270.486 68.7536V69.026H269.942V68.7536H270.486ZM271.302 68.7536V69.026H270.758V68.7536H271.302ZM272.118 68.7536V69.026H271.574V68.7536H272.118ZM272.933 68.7536V69.026H272.389V68.7536H272.933ZM273.636 69.1395H273.364V69.026H273.205V68.7536H273.5H273.636V68.8898V69.1395ZM273.636 69.9569H273.364V69.412H273.636V69.9569ZM273.636 70.7742H273.364V70.2293H273.636V70.7742ZM273.636 71.6143H273.364V71.0694H273.636V71.6143ZM273.636 72.4316H273.364V71.8867H273.636V72.4316ZM273.636 73.249H273.364V72.7041H273.636V73.249ZM273.636 74.0663H273.364V73.5214H273.636V74.0663ZM273.636 74.8837H273.364V74.3388H273.636V74.8837ZM273.636 75.701H273.364V75.1561H273.636V75.701ZM273.636 76.5184H273.364V75.9735H273.636V76.5184ZM273.636 77.3357H273.364V76.7908H273.636V77.3357ZM273.636 78.1531H273.364V77.6082H273.636V78.1531ZM273.636 78.9704H273.364V78.4255H273.636V78.9704ZM273.636 79.7878H273.364V79.2429H273.636V79.7878ZM273.636 80.6051H273.364V80.0602H273.636V80.6051ZM273.636 81.4225H273.364V80.8775H273.636V81.4225ZM273.636 82.2398H273.364V81.6949H273.636V82.2398ZM273.636 83.0571H273.364V82.5122H273.636V83.0571ZM273.636 83.8745H273.364V83.3296H273.636V83.8745ZM273.636 84.6918H273.364V84.1469H273.636V84.6918ZM273.636 85.5092H273.364V84.9643H273.636V85.5092ZM273.636 86.3265H273.364V85.7816H273.636V86.3265ZM273.636 87.1439H273.364V86.599H273.636V87.1439ZM273.636 87.9612H273.364V87.4163H273.636V87.9612ZM273.636 88.7786H273.364V88.2337H273.636V88.7786ZM273.636 89.5959H273.364V89.051H273.636V89.5959ZM273.636 90.4133H273.364V89.8684H273.636V90.4133ZM273.636 91.2306H273.364V90.6857H273.636V91.2306ZM273.636 92.0707H273.364V91.5258H273.636V92.0707ZM273.636 92.888H273.364V92.3431H273.636V92.888ZM273.636 93.7054H273.364V93.1605H273.636V93.7054ZM273.636 94.5227H273.364V93.9778H273.636V94.5227ZM273.636 95.3401H273.364V94.7951H273.636V95.3401ZM273.636 96.1574H273.364V95.6125H273.636V96.1574ZM273.636 96.9747H273.364V96.4298H273.636V96.9747ZM273.636 97.7921H273.364V97.2472H273.636V97.7921ZM273.636 98.6094H273.364V98.0645H273.636V98.6094ZM273.636 99.4268H273.364V98.8819H273.636V99.4268ZM273.636 100.244H273.364V99.6992H273.636V100.244ZM273.636 101.061H273.364V100.517H273.636V101.061ZM273.636 101.879H273.364V101.334H273.636V101.879ZM273.636 102.696H273.364V102.151H273.636V102.696ZM273.636 103.514H273.364V102.969H273.636V103.514ZM273.636 104.331H273.364V103.786H273.636V104.331ZM273.636 105.148H273.364V104.603H273.636V105.148ZM273.636 105.966H273.364V105.421H273.636V105.966ZM273.636 106.783H273.364V106.238H273.636V106.783ZM273.636 107.6H273.364V107.055H273.636V107.6ZM273.636 108.418H273.364V107.873H273.636V108.418ZM273.636 109.235H273.364V108.69H273.636V109.235ZM273.636 110.052H273.364V109.507H273.636V110.052ZM273.636 110.87H273.364V110.325H273.636V110.87ZM273.636 111.71H273.364V111.165H273.636V111.71ZM273.636 112.527H273.364V111.982H273.636V112.527ZM273.636 113.344H273.364V112.799H273.636V113.344ZM273.636 114.162H273.364V113.617H273.636V114.162ZM273.636 114.979H273.364V114.434H273.636V114.979ZM272.707 115.138V114.866H273.25V115.138H272.707ZM271.891 115.138V114.866H272.435V115.138H271.891ZM271.075 115.138V114.866H271.619V115.138H271.075ZM270.26 115.138V114.866H270.803V115.138H270.26ZM269.444 115.138V114.866H269.988V115.138H269.444ZM268.628 115.138V114.866H269.172V115.138H268.628ZM267.812 115.138V114.866H268.356V115.138H267.812ZM266.997 115.138V114.866H267.54V115.138H266.997ZM266.181 115.138V114.866H266.725V115.138H266.181ZM265.365 115.138V114.866H265.909V115.138H265.365ZM264.549 115.138V114.866H265.093V115.138H264.549ZM263.734 115.138V114.866H264.278V115.138H263.734ZM262.918 115.138V114.866H263.462V115.138H262.918ZM262.102 115.138V114.866H262.646V115.138H262.102ZM261.287 115.138V114.866H261.83V115.138H261.287ZM260.471 115.138V114.866H261.015V115.138H260.471ZM259.655 115.138V114.866H260.199V115.138H259.655ZM258.839 115.138V114.866H259.383V115.138H258.839ZM258.024 115.138V114.866H258.567V115.138H258.024ZM257.208 115.138V114.866H257.752V115.138H257.208ZM256.392 115.138V114.866H256.936V115.138H256.392ZM255.554 115.138V114.866H256.098V115.138H255.554ZM254.738 115.138V114.866H255.282V115.138H254.738ZM253.922 115.138V114.866H254.466V115.138H253.922ZM253.107 115.138V114.866H253.65V115.138H253.107ZM252.291 115.138V114.866H252.835V115.138H252.291ZM251.475 115.138V114.866H252.019V115.138H251.475ZM250.659 115.138V114.866H251.203V115.138H250.659ZM249.844 115.138V114.866H250.388V115.138H249.844ZM249.028 115.138V114.866H249.572V115.138H249.028ZM248.212 115.138V114.866H248.756V115.138H248.212ZM247.397 115.138V114.866H247.94V115.138H247.397ZM246.581 115.138V114.866H247.125V115.138H246.581ZM245.765 115.138V114.866H246.309V115.138H245.765ZM244.949 115.138V114.866H245.493V115.138H244.949ZM244.134 115.138V114.866H244.677V115.138H244.134ZM243.318 115.138V114.866H243.862V115.138H243.318ZM242.502 115.138V114.866H243.046V115.138H242.502ZM241.687 115.138V114.866H242.23V115.138H241.687ZM240.871 115.138V114.866H241.415V115.138H240.871ZM240.055 115.138V114.866H240.599V115.138H240.055ZM239.239 115.138V114.866H239.783V115.138H239.239ZM238.424 115.138V114.866H238.967V115.138H238.424ZM237.608 115.138V114.866H238.152V115.138H237.608ZM236.792 115.138V114.866H237.336V115.138H236.792ZM235.954 115.138V114.866H236.498V115.138H235.954ZM235.138 115.138V114.866H235.682V115.138H235.138ZM234.322 115.138V114.866H234.866V115.138H234.322ZM233.507 115.138V114.866H234.05V115.138H233.507ZM232.691 115.138V114.866H233.235V115.138H232.691ZM231.875 115.138V114.866H232.419V115.138H231.875ZM231.059 115.138V114.866H231.603V115.138H231.059ZM230.244 115.138V114.866H230.788V115.138H230.244ZM229.428 115.138V114.866H229.972V115.138H229.428ZM228.612 115.138V114.866H229.156V115.138H228.612ZM227.797 115.138V114.866H228.34V115.138H227.797ZM226.981 115.138V114.866H227.525V115.138H226.981ZM226.165 115.138V114.866H226.709V115.138H226.165ZM225.349 115.138V114.866H225.893V115.138H225.349ZM224.534 115.138V114.866H225.077V115.138H224.534ZM223.718 115.138V114.866H224.262V115.138H223.718ZM222.902 115.138V114.866H223.446V115.138H222.902ZM222.086 115.138V114.866H222.63V115.138H222.086ZM221.271 115.138V114.866H221.815V115.138H221.271ZM220.455 115.138V114.866H220.999V115.138H220.455ZM219.639 115.138V114.866H220.183V115.138H219.639ZM218.824 115.138V114.866H219.367V115.138H218.824ZM218.008 115.138V114.866H218.552V115.138H218.008ZM217.555 114.502H217.827V115.002H217.736V115.138H217.691H217.555V115.002V114.502ZM217.555 113.685H217.827V114.23H217.555V113.685ZM217.555 112.868H217.827V113.412H217.555V112.868ZM217.555 112.05H217.827V112.595H217.555V112.05ZM217.555 111.233H217.827V111.778H217.555V111.233ZM217.555 110.416H217.827V110.96H217.555V110.416ZM217.555 109.598H217.827V110.143H217.555V109.598ZM217.555 108.781H217.827V109.326H217.555V108.781ZM217.555 107.964H217.827V108.508H217.555V107.964ZM217.555 107.146H217.827V107.691H217.555V107.146ZM217.555 106.329H217.827V106.874H217.555V106.329ZM217.555 105.489H217.827V106.034H217.555V105.489ZM217.555 104.671H217.827V105.216H217.555V104.671ZM217.555 103.854H217.827V104.399H217.555V103.854ZM217.555 103.037H217.827V103.582H217.555V103.037ZM217.555 102.219H217.827V102.764H217.555V102.219ZM217.555 101.402H217.827V101.947H217.555V101.402ZM217.555 100.585H217.827V101.13H217.555V100.585ZM217.555 99.7673H217.827V100.312H217.555V99.7673ZM217.555 98.95H217.827V99.4949H217.555V98.95ZM217.555 98.1327H217.827V98.6776H217.555V98.1327ZM217.555 97.3153H217.827V97.8602H217.555V97.3153ZM217.555 96.498H217.827V97.0429H217.555V96.498ZM217.555 95.6806H217.827V96.2255H217.555V95.6806ZM217.555 94.8633H217.827V95.4082H217.555V94.8633ZM217.555 94.0459H217.827V94.5908H217.555V94.0459ZM217.555 93.2286H217.827V93.7735H217.555V93.2286ZM217.555 92.4112H217.827V92.9561H217.555V92.4112ZM217.555 91.5939H217.827V92.1388H217.555V91.5939ZM217.555 90.7765H217.827V91.3214H217.555V90.7765ZM217.555 89.9592H217.827V90.5041H217.555V89.9592ZM217.555 89.1418H217.827V89.6867H217.555V89.1418ZM217.555 88.3245H217.827V88.8694H217.555V88.3245ZM217.555 87.5071H217.827V88.052H217.555V87.5071ZM217.555 86.6898H217.827V87.2347H217.555V86.6898ZM217.555 85.8497H217.827V86.3946H217.555V85.8497ZM217.555 85.0324H217.827V85.5773H217.555V85.0324ZM217.555 84.2151H217.827V84.7599H217.555V84.2151ZM217.555 83.3977H217.827V83.9426H217.555V83.3977ZM217.555 82.5804H217.827V83.1253H217.555V82.5804ZM217.555 81.763H217.827V82.3079H217.555V81.763ZM217.555 80.9457H217.827V81.4906H217.555V80.9457ZM217.555 80.1283H217.827V80.6732H217.555V80.1283ZM217.555 79.311H217.827V79.8559H217.555V79.311ZM217.555 78.4936H217.827V79.0385H217.555V78.4936ZM217.555 77.6763H217.827V78.2212H217.555V77.6763ZM217.555 76.8589H217.827V77.4038H217.555V76.8589ZM217.555 76.0416H217.827V76.5865H217.555V76.0416ZM217.555 75.2242H217.827V75.7691H217.555V75.2242ZM217.555 74.4069H217.827V74.9518H217.555V74.4069ZM217.555 73.5895H217.827V74.1344H217.555V73.5895ZM217.555 72.7722H217.827V73.3171H217.555V72.7722ZM217.555 71.9548H217.827V72.4997H217.555V71.9548ZM217.555 71.1375H217.827V71.6824H217.555V71.1375ZM217.555 70.3202H217.827V70.865H217.555V70.3202ZM217.555 69.5028H217.827V70.0477H217.555V69.5028ZM218.234 68.7536V69.026H217.827V69.2304H217.555V68.8898V68.7536H217.691H218.234Z" fill="white"/>
<path d="M257.411 80.537H233.37V101.447H257.411V80.537Z" fill="url(#paint5_linear)"/>
<path fill-rule="evenodd" clip-rule="evenodd" d="M195.508 141.997H204.957C205.886 141.997 206.633 142.746 206.633 143.677V153.599C206.633 154.53 205.886 155.279 204.957 155.279H195.508C194.579 155.279 193.831 154.53 193.831 153.599V143.677C193.831 142.769 194.579 141.997 195.508 141.997Z" fill="white"/>
<path fill-rule="evenodd" clip-rule="evenodd" d="M211.209 141.997H220.658C221.587 141.997 222.335 142.746 222.335 143.677V153.599C222.335 154.53 221.587 155.279 220.658 155.279H211.209C210.28 155.279 209.532 154.53 209.532 153.599V143.677C209.532 142.769 210.28 141.997 211.209 141.997Z" fill="white"/>
<path fill-rule="evenodd" clip-rule="evenodd" d="M226.912 141.997H236.361C237.29 141.997 238.038 142.746 238.038 143.677V153.599C238.038 154.53 237.29 155.279 236.361 155.279H226.912C225.983 155.279 225.235 154.53 225.235 153.599V143.677C225.235 142.769 225.983 141.997 226.912 141.997Z" fill="white"/>
<path fill-rule="evenodd" clip-rule="evenodd" d="M242.614 141.997H252.063C252.992 141.997 253.74 142.746 253.74 143.677V153.599C253.74 154.53 252.992 155.279 252.063 155.279H242.614C241.685 155.279 240.938 154.53 240.938 153.599V143.677C240.938 142.769 241.685 141.997 242.614 141.997Z" fill="white"/>
<path d="M213.974 158.821H193.672V160.206H213.974V158.821Z" fill="#B8E4FF"/>
<path d="M236.385 158.821H216.082V160.206H236.385V158.821Z" fill="#B8E4FF"/>
<path d="M253.741 158.821H238.831V160.206H253.741V158.821Z" fill="white"/>
<path d="M223.333 162.703H193.672V164.088H223.333V162.703Z" fill="white"/>
<path d="M236.384 162.703H225.462V164.088H236.384V162.703Z" fill="#B8E4FF"/>
<path d="M253.741 162.703H238.831V164.088H253.741V162.703Z" fill="#B8E4FF"/>
<path fill-rule="evenodd" clip-rule="evenodd" d="M200.31 144.858L203.981 152.214H196.64L200.31 144.858Z" fill="#EF8200"/>
<path fill-rule="evenodd" clip-rule="evenodd" d="M216.036 145.766C217.668 145.766 218.982 147.083 218.982 148.717C218.982 150.352 217.668 151.669 216.036 151.669C214.405 151.669 213.091 150.352 213.091 148.717C213.091 147.105 214.428 145.766 216.036 145.766Z" fill="#D4066E"/>
<path fill-rule="evenodd" clip-rule="evenodd" d="M231.67 145.561L232.667 147.514L234.82 147.855L233.279 149.398L233.619 151.555L231.67 150.579L229.721 151.555L230.061 149.398L228.521 147.855L230.673 147.514L231.67 145.561Z" fill="#F4B1B1"/>
<path d="M247.335 145.386L244.083 148.645L247.336 151.904L250.588 148.645L247.335 145.386Z" fill="#EF8200"/>
<path fill-rule="evenodd" clip-rule="evenodd" d="M337.194 176.802C336.197 184.113 341.091 186.383 336.288 193.149C336.288 193.149 333.342 189.903 332.073 189.675C330.804 189.448 330.646 185.475 330.646 185.271C330.646 185.067 331.756 177.143 331.756 177.143L337.194 176.802Z" fill="black"/>
<path fill-rule="evenodd" clip-rule="evenodd" d="M338.349 223.028L345.169 225.071C345.169 225.071 345.939 225.979 346.121 226.797C346.302 227.614 346.642 227.955 347.163 228C348.092 228.068 348.477 222.074 348.613 221.121L340.841 218.941L338.349 223.028Z" fill="#F4B1B1"/>
<path fill-rule="evenodd" clip-rule="evenodd" d="M334.791 187.042H323.326C321.898 187.042 318.386 189.744 317.752 193.285C316.596 198.984 317.095 211.494 321.128 215.967L325.682 215.899L339.64 212.425V200.324V188.813C338.349 187.7 336.649 187.042 334.791 187.042Z" fill="#00A0E8"/>
<path fill-rule="evenodd" clip-rule="evenodd" d="M323.326 187.087C317.662 187.655 317.14 194.761 317.208 199.211H323.304L323.326 187.087Z" fill="#00A0E8"/>
<path fill-rule="evenodd" clip-rule="evenodd" d="M332.617 186.906C333.908 189.131 332.504 190.697 331.212 191.424C329.422 190.243 327.791 189.108 327.791 186.906C327.791 186.906 326.023 186.27 325.615 187.246C329.354 196.964 328.266 209.292 328.266 209.292C330.872 209.201 337.783 208.043 337.851 208.247C338.123 205.886 338.1 190.516 333.614 186.928L332.617 186.906Z" fill="white"/>
<path fill-rule="evenodd" clip-rule="evenodd" d="M322.783 199.257L317.231 199.211C317.231 202.571 322.692 210.336 329.173 210.336H337.262C337.262 210.336 335.54 208.134 333.274 207.952C331.008 207.771 330.917 208.089 330.917 208.089C329.649 208.111 323.893 204.751 322.783 199.257Z" fill="#F4B1B1"/>
<path fill-rule="evenodd" clip-rule="evenodd" d="M348.795 210.336H324.595C324.323 210.336 324.051 210.359 323.802 210.404C317.276 210.404 317.163 214.468 316.664 219.032H325.207H331.121H348.817C351.196 219.032 353.168 217.079 353.168 214.673C353.145 212.289 351.174 210.336 348.795 210.336Z" fill="#092978"/>
<path fill-rule="evenodd" clip-rule="evenodd" d="M349.883 210.745C348.908 210.518 347.843 210.177 346.688 210.336C343.107 210.813 321.763 217.261 321.763 217.261L325.524 221.643C329.92 221.37 347.549 222.937 350.902 220.621C354.414 218.215 355.207 211.971 349.883 210.745Z" fill="#092978"/>
<path fill-rule="evenodd" clip-rule="evenodd" d="M335.743 181.752C336.196 183.455 334.089 186.315 332.616 186.225V186.906C333.908 189.131 332.503 190.697 331.211 191.401C329.421 190.243 327.813 189.085 327.79 186.906V184.34C327.654 184.295 327.654 184.522 327.405 184.363C327.155 184.204 326.589 183.069 326.68 182.478C326.793 181.888 327.541 181.547 327.541 181.547C326.838 179.799 326.272 179.527 328.107 178.551C329.943 177.574 333.636 177.642 333.636 177.642L335.313 178.21C335.381 179.845 335.29 180.094 335.743 181.752Z" fill="#F4B1B1"/>
<path fill-rule="evenodd" clip-rule="evenodd" d="M332.979 186.224C332.866 186.224 332.73 186.224 332.617 186.224C331.506 186.202 330.577 185.975 329.558 185.589C329.558 185.589 329.92 186.769 331.234 187.382C332.05 187.768 332.707 187.905 333.07 187.95C333.002 187.632 332.843 187.269 332.639 186.906V186.224H332.979Z" fill="#ED8D8F"/>
<path fill-rule="evenodd" clip-rule="evenodd" d="M339.55 188.722C342.654 191.492 344.467 195.352 345.577 199.37C343.538 199.234 341.408 199.257 339.392 199.189L339.55 188.722Z" fill="#00A0E8"/>
<path fill-rule="evenodd" clip-rule="evenodd" d="M334.995 197.758H350.879C351.491 197.758 352.126 198.28 351.99 198.871L349.611 209.383C349.475 209.973 349.112 210.495 348.5 210.495H332.616C332.004 210.495 331.37 209.973 331.506 209.383L333.885 198.871C333.998 198.258 334.361 197.758 334.995 197.758Z" fill="#82B9D8"/>
<path fill-rule="evenodd" clip-rule="evenodd" d="M335.698 197.758H351.583C352.194 197.758 352.829 198.28 352.693 198.871L350.314 209.383C350.178 209.973 349.815 210.495 349.203 210.495H333.319C332.707 210.495 332.073 209.973 332.209 209.383L334.588 198.871C334.724 198.258 335.087 197.758 335.698 197.758Z" fill="#A8DBF6"/>
<path fill-rule="evenodd" clip-rule="evenodd" d="M342.79 203.071C343.266 203.23 343.516 203.82 343.334 204.388C343.153 204.955 342.609 205.319 342.133 205.16C341.658 205.001 341.408 204.41 341.59 203.843C341.771 203.275 342.315 202.935 342.79 203.071Z" fill="white"/>
<path fill-rule="evenodd" clip-rule="evenodd" d="M323.961 209.451H332.027V210.495H323.439V209.973C323.439 209.701 323.666 209.451 323.961 209.451Z" fill="#82B9D8"/>
<path fill-rule="evenodd" clip-rule="evenodd" d="M321.65 210.586C325.253 210.768 343.879 217.829 343.879 217.829L341.907 224.549C339.166 224.208 319.702 221.62 318.229 220.78C311.975 217.193 316.416 210.109 321.65 210.586Z" fill="#092978"/>
<path fill-rule="evenodd" clip-rule="evenodd" d="M330.442 178.846C330.442 178.846 333.659 179.595 336.107 179.005C339.188 178.255 337.965 174.804 336.016 173.419C333.07 171.331 327.836 172.171 326.159 175.712C323.984 180.276 324.233 181.366 319.52 183.841C317.707 184.794 315.147 187.042 314.92 190.22C314.898 190.606 315.759 190.243 316.937 189.948C315.555 191.719 317.096 194.784 317.39 195.147C317.843 187.087 326.114 187.269 327.836 187.065C327.904 186.088 328.289 185.453 328.289 184.84C328.289 184.84 327.36 184.204 327.405 183.205C327.473 182.206 327.587 182.478 327.723 182.524C327.836 182.546 328.493 182.932 328.493 182.932C328.72 181.593 328.674 178.982 330.442 178.846Z" fill="black"/>
<path fill-rule="evenodd" clip-rule="evenodd" d="M300.78 23.7541H310.772C312.019 23.7541 315.1 26.1153 315.621 29.2031C316.641 34.1753 316.188 45.0959 312.676 48.9783L308.688 48.9329L296.497 45.9133V35.3559V25.298C297.675 24.3217 299.171 23.7541 300.78 23.7541Z" fill="#76C5FB"/>
<path fill-rule="evenodd" clip-rule="evenodd" d="M310.773 23.7768C315.713 24.2536 316.166 30.4745 316.098 34.3569H310.773V23.7768Z" fill="#76C5FB"/>
<path fill-rule="evenodd" clip-rule="evenodd" d="M311.249 34.4023L316.098 34.3569C314.195 39.6015 310.524 44.0515 305.675 44.0515H298.628C298.628 44.0515 300.123 42.1217 302.095 41.9628C304.066 41.8038 304.157 42.0763 304.157 42.0763C305.811 41.2135 309.64 38.262 311.249 34.4023Z" fill="#F7CCCF"/>
<path d="M317.503 74.1344L317.979 77.6082L319.225 78.7661C319.225 78.7661 320.199 78.7207 320.313 79.0612C320.426 79.4018 320.313 80.1283 320.313 80.1283H319.338H313.968C313.628 78.6072 313.334 77.0179 313.243 74.3388L317.503 74.1344Z" fill="#663300"/>
<path fill-rule="evenodd" clip-rule="evenodd" d="M288.568 44.0515H309.686C309.935 44.0515 310.162 44.0742 310.389 44.1196C316.28 44.0969 317.005 47.9112 317.435 52.0888L319.815 76.0416H311.816L309.188 51.6801H288.591C286.506 51.6801 284.807 49.9773 284.807 47.8885C284.761 45.777 286.483 44.0515 288.568 44.0515Z" fill="#092978"/>
<path d="M294.322 65.961L297.223 72.4543C297.223 72.4543 297.041 73.635 296.543 74.2934C296.067 74.9745 296.022 75.4513 296.316 75.86C296.611 76.2686 296.701 76.3594 296.701 76.3594L301.618 71.2056L299.035 65.1663L294.322 65.961Z" fill="#663300"/>
<path fill-rule="evenodd" clip-rule="evenodd" d="M290.584 45.164C291.377 45.5273 292.125 46.1857 292.668 47.0485C294.413 49.6821 302.298 67.5048 302.298 67.5048H293.235L286.641 52.9969C286.369 52.3839 285.01 49.8865 284.874 48.7286C284.466 45.0278 287.525 43.7564 290.584 45.164Z" fill="#092978"/>
<path fill-rule="evenodd" clip-rule="evenodd" d="M299.716 18.7365C298.674 20.5982 300.464 23.2092 302.662 23.0276V23.6179L301.461 25.3434L302.639 27.1143L303.863 27.5684L306.854 26.7964V21.4156C306.967 21.3929 306.967 21.5745 307.194 21.4383C307.42 21.302 307.896 20.3031 307.828 19.7809C307.737 19.2587 307.08 18.9635 307.08 18.9635C307.692 17.4423 308.191 17.1926 306.604 16.3526C304.996 15.5125 301.778 15.5579 301.778 15.5579L300.305 16.0574C300.26 17.4878 300.441 17.4423 299.716 18.7365Z" fill="#F7CCCF"/>
<path fill-rule="evenodd" clip-rule="evenodd" d="M302.366 23.0276C302.48 23.0276 302.57 23.0276 302.684 23.0276C303.635 23.0049 304.474 22.8232 305.357 22.4827C305.357 22.4827 305.04 23.527 303.885 24.0492C302.82 24.5487 302.095 24.5714 302.004 24.5714L302.661 23.6406V23.0503L302.366 23.0276Z" fill="#DD7577"/>
<path fill-rule="evenodd" clip-rule="evenodd" d="M300.69 16.5115C301.913 16.7158 302.91 16.5342 303.681 16.625C304.134 16.6704 304.474 16.9202 304.768 17.1472C305.471 17.7148 306.015 19.1452 306.173 20.076C306.173 20.076 306.989 19.7355 307.261 19.8944C307.533 20.076 307.352 20.4847 307.329 20.6436C307.284 20.8253 306.898 21.0069 306.785 21.0977C306.423 21.4156 307.284 21.5518 308.303 20.7344C311.408 18.2143 309.799 13.6508 305.969 12.3339C304.111 11.6982 304.315 10.949 303.046 10.6765C298.356 9.79108 297.042 15.3763 300.69 16.5115Z" fill="#363653"/>
<path fill-rule="evenodd" clip-rule="evenodd" d="M296.635 25.2071C293.916 27.6365 292.352 30.974 291.378 34.4931C293.168 34.3796 295.026 34.3796 296.771 34.3342L296.635 25.2071Z" fill="#76C5FB"/>
<path fill-rule="evenodd" clip-rule="evenodd" d="M303.93 30.5653C304.111 30.5653 304.247 30.7015 304.247 30.8832C304.247 31.0648 304.111 31.201 303.93 31.201C303.749 31.201 303.613 31.0648 303.613 30.8832C303.613 30.7242 303.749 30.5653 303.93 30.5653ZM303.93 28.6809C304.111 28.6809 304.247 28.8171 304.247 28.9987C304.247 29.1804 304.111 29.3166 303.93 29.3166C303.749 29.3166 303.613 29.1804 303.613 28.9987C303.613 28.8171 303.749 28.6809 303.93 28.6809ZM302.684 23.6179C301.551 25.5477 302.797 26.9327 303.907 27.5457C305.471 26.524 306.898 25.525 306.898 23.6179C306.898 23.6179 307.442 23.6179 307.782 24.4806C308.371 25.8656 307.397 28.9987 307.397 28.9987C307.397 28.9987 306.309 27.5911 305.403 27.5003C304.496 27.4321 303.907 27.7046 303.907 27.7046C302.752 26.8418 301.958 27.9543 301.188 28.7717C300.939 26.7056 300.984 25.2298 302.525 23.6179H302.684Z" fill="white"/>
<path fill-rule="evenodd" clip-rule="evenodd" d="M301.528 31.8821H286.256C285.667 31.8821 285.055 32.3816 285.191 32.9492L287.48 43.0753C287.616 43.6429 287.955 44.1423 288.545 44.1423H303.817C304.406 44.1423 305.018 43.6429 304.882 43.0753L302.593 32.9492C302.457 32.3816 302.117 31.8821 301.528 31.8821Z" fill="#4895D1"/>
<path fill-rule="evenodd" clip-rule="evenodd" d="M300.826 31.8821H285.554C284.965 31.8821 284.353 32.3816 284.489 32.9492L286.777 43.0753C286.913 43.6429 287.253 44.1423 287.842 44.1423H303.115C303.704 44.1423 304.316 43.6429 304.18 43.0753L301.891 32.9492C301.778 32.3816 301.415 31.8821 300.826 31.8821Z" fill="white"/>
<path fill-rule="evenodd" clip-rule="evenodd" d="M294.006 37.0132C293.552 37.1722 293.303 37.7398 293.484 38.2847C293.666 38.8296 294.187 39.1701 294.64 39.0112C295.093 38.8523 295.342 38.2847 295.161 37.7398C295.003 37.1949 294.481 36.877 294.006 37.0132Z" fill="#00A0E8"/>
<path fill-rule="evenodd" clip-rule="evenodd" d="M312.133 43.1433H304.384V44.1423H312.654V43.6428C312.632 43.3704 312.405 43.1433 312.133 43.1433Z" fill="#4895D1"/>
<path fill-rule="evenodd" clip-rule="evenodd" d="M341.181 158.094C344.15 161.818 347.231 166.858 348.364 170.491C348.455 170.808 348.681 171.035 348.999 171.194L358.719 170.945C359.15 170.74 359.467 170.468 359.558 170.059C360.441 166.54 367.239 155.574 367.148 155.597C368.463 153.235 369.188 150.511 369.097 147.605C368.871 138.955 361.597 132.121 352.873 132.348C344.15 132.575 337.261 139.795 337.488 148.445C337.556 151.328 338.417 154.007 339.844 156.278C340.343 156.891 340.683 157.481 341.181 158.094Z" fill="#FCA700"/>
<path fill-rule="evenodd" clip-rule="evenodd" d="M350.426 156.369C350.132 153.985 348.478 153.985 348.296 155.688C348.251 156.073 348.319 156.459 348.455 156.823C348.591 157.231 349.384 157.504 350.472 157.663L350.426 156.369ZM356.635 156.21C356.794 153.826 358.47 153.735 358.72 155.415C358.788 155.801 358.72 156.187 358.629 156.55C358.516 156.959 357.745 157.277 356.68 157.504L356.635 156.21ZM353.803 159.093H353.599H353.395C352.783 159.093 352.148 159.07 351.559 159.002V159.388L351.877 171.104L350.789 171.126L350.472 159.411L350.449 158.843C348.908 158.571 347.707 158.026 347.435 157.209C347.254 156.664 347.163 156.096 347.209 155.529C347.254 155.029 347.413 154.552 347.707 154.144C347.957 153.78 348.274 153.485 348.659 153.304C350.336 152.85 351.514 154.62 351.469 156.301L351.514 157.776C352.148 157.822 352.851 157.844 353.531 157.822C354.233 157.799 354.913 157.754 355.547 157.663L355.502 156.187C355.343 154.507 356.454 152.691 358.153 153.054C358.538 153.235 358.901 153.508 359.15 153.849C359.445 154.257 359.626 154.711 359.717 155.211C359.807 155.778 359.739 156.346 359.581 156.891C359.354 157.708 358.176 158.321 356.658 158.684L356.68 159.252L356.997 170.967L355.91 170.99L355.593 159.275V158.889C355.026 159.002 354.414 159.048 353.803 159.093Z" fill="white"/>
<path fill-rule="evenodd" clip-rule="evenodd" d="M349.951 171.126L357.541 170.922C358.606 170.899 359.513 171.739 359.535 172.806C359.535 173.873 358.72 174.782 357.655 174.804H357.383C357.292 174.827 357.224 174.918 357.224 175.031C357.224 175.145 357.292 175.236 357.405 175.258C358.063 175.236 358.425 175.781 358.425 176.439C358.425 177.097 357.927 177.665 357.247 177.665L356.59 177.688C356.499 177.71 356.431 177.801 356.431 177.915C356.431 178.028 356.499 178.119 356.612 178.142C357.02 178.323 357.27 178.687 357.36 179.254C357.383 179.89 356.884 180.412 356.25 180.435L351.809 180.548C351.174 180.571 350.653 180.072 350.63 179.436C350.608 178.846 351.038 178.369 351.605 178.278C351.695 178.233 351.763 178.165 351.763 178.051C351.763 177.937 351.695 177.869 351.605 177.824L350.676 177.847C350.019 177.869 349.452 177.347 349.452 176.666C349.43 176.008 349.951 175.44 350.63 175.44C350.721 175.417 350.789 175.327 350.789 175.213C350.789 175.099 350.721 175.031 350.63 174.986L350.132 175.009C349.067 175.031 348.161 174.191 348.138 173.124C348.025 172.057 348.886 171.172 349.951 171.126Z" fill="#219EF8"/>
<path d="M357.587 135.935C356.793 135.594 355.887 135.958 355.57 136.752C355.23 137.547 355.593 138.455 356.386 138.773C358.312 139.59 360.011 141.089 361.303 142.928C362.617 144.812 363.478 147.015 363.659 149.126C363.727 149.989 364.475 150.624 365.313 150.556C366.174 150.488 366.809 149.739 366.741 148.899C366.514 146.22 365.472 143.473 363.84 141.157C362.209 138.864 360.056 136.979 357.587 135.935Z" fill="#FFCF74"/>
<path fill-rule="evenodd" clip-rule="evenodd" d="M366.492 125.673C366.923 125.922 367.059 126.467 366.81 126.876L364.884 130.236C364.634 130.668 364.09 130.804 363.683 130.554C363.252 130.304 363.116 129.759 363.365 129.351L365.291 125.991C365.541 125.582 366.084 125.423 366.492 125.673ZM340.117 125.673C340.548 125.423 341.092 125.582 341.318 125.991L343.244 129.351C343.493 129.782 343.335 130.327 342.927 130.554C342.496 130.804 341.953 130.645 341.726 130.236L339.8 126.876C339.551 126.467 339.687 125.922 340.117 125.673ZM330.464 135.345C330.714 134.913 331.258 134.777 331.665 135.027L335.019 136.957C335.449 137.206 335.585 137.751 335.336 138.16C335.087 138.591 334.543 138.728 334.135 138.478L330.782 136.548C330.351 136.321 330.215 135.776 330.464 135.345ZM376.168 135.345C376.417 135.776 376.258 136.321 375.851 136.548L372.497 138.478C372.066 138.728 371.523 138.569 371.296 138.16C371.047 137.729 371.205 137.184 371.613 136.957L374.967 135.027C375.375 134.777 375.919 134.936 376.168 135.345ZM379.703 148.581C379.703 149.081 379.295 149.467 378.819 149.467H374.944C374.446 149.467 374.06 149.058 374.06 148.581C374.06 148.082 374.468 147.696 374.944 147.696H378.819C379.295 147.696 379.703 148.082 379.703 148.581ZM332.572 148.581C332.572 149.081 332.164 149.467 331.688 149.467H327.813C327.315 149.467 326.93 149.058 326.93 148.581C326.93 148.082 327.338 147.696 327.813 147.696H331.688C332.164 147.696 332.572 148.082 332.572 148.581ZM353.305 122.131C353.781 122.131 354.189 122.54 354.189 123.016V126.899C354.189 127.398 353.781 127.784 353.305 127.784C352.806 127.784 352.421 127.376 352.421 126.899V123.016C352.421 122.54 352.829 122.131 353.305 122.131Z" fill="#FCA700"/>
<path fill-rule="evenodd" clip-rule="evenodd" d="M147.583 174.259H153.656C157.508 174.259 160.997 175.826 163.512 178.369C166.05 180.889 167.614 184.385 167.614 188.245V220.78H166.164V188.245C166.164 184.817 164.759 181.684 162.493 179.413C160.227 177.143 157.1 175.735 153.656 175.735H147.583C144.139 175.735 141.012 177.143 138.746 179.413C136.48 181.684 135.075 184.817 135.075 188.245V220.78H133.603V188.245C133.603 184.408 135.166 180.912 137.704 178.369C140.264 175.849 143.754 174.259 147.583 174.259Z" fill="#092978"/>
<path fill-rule="evenodd" clip-rule="evenodd" d="M134.486 174.259H168.792C169.268 174.259 169.653 174.645 169.653 175.145C169.653 175.622 169.268 176.008 168.792 176.008H134.486C134.01 176.008 133.625 175.622 133.625 175.145C133.625 174.668 134.01 174.259 134.486 174.259Z" fill="#092978"/>
<path fill-rule="evenodd" clip-rule="evenodd" d="M134.056 160.342H151.684C152.115 160.342 152.364 160.705 152.477 161.136L155.786 173.192C155.899 173.601 155.423 173.987 154.993 173.987H136.775C136.344 173.987 136.072 173.624 135.982 173.192L133.285 161.136C133.172 160.705 133.625 160.342 134.056 160.342Z" fill="#0094FF"/>
<path fill-rule="evenodd" clip-rule="evenodd" d="M134.577 160.342H152.206C152.636 160.342 152.886 160.705 152.999 161.136L156.307 173.192C156.42 173.601 155.945 173.987 155.514 173.987H137.296C136.866 173.987 136.594 173.624 136.503 173.192L133.807 161.136C133.693 160.705 134.147 160.342 134.577 160.342Z" fill="#102B6E"/>
<path d="M155.31 160.978H134.509V172.057H155.31V160.978Z" fill="url(#paint6_linear)"/>
<path fill-rule="evenodd" clip-rule="evenodd" d="M136.458 173.011H160.137V173.646C160.137 173.987 159.865 174.282 159.502 174.282H137.07C136.73 174.282 136.436 174.01 136.436 173.646V173.011H136.458Z" fill="#0094FF"/>
<path fill-rule="evenodd" clip-rule="evenodd" d="M149.804 173.011H167.387V173.646C167.387 173.987 167.115 174.282 166.753 174.282H150.438C150.098 174.282 149.804 174.01 149.804 173.646V173.011Z" fill="#E4F5FB"/>
<path fill-rule="evenodd" clip-rule="evenodd" d="M156.873 173.51H162.266C162.334 173.51 162.379 173.556 162.379 173.624C162.379 173.692 162.334 173.737 162.266 173.737H156.873C156.805 173.737 156.76 173.692 156.76 173.624C156.76 173.556 156.805 173.51 156.873 173.51Z" fill="#102B6E"/>
<path fill-rule="evenodd" clip-rule="evenodd" d="M137.024 173.238C137.16 173.238 137.273 173.374 137.273 173.556C137.273 173.737 137.16 173.873 137.024 173.873C136.888 173.873 136.774 173.737 136.774 173.556C136.774 173.397 136.888 173.238 137.024 173.238Z" fill="#102B6E"/>
<path d="M144.955 173.465H141.715V173.828H144.955V173.465Z" fill="#102B6E"/>
<path d="M146.087 173.465H145.271V173.828H146.087V173.465Z" fill="#102B6E"/>
<path d="M147.198 173.465H146.382V173.828H147.198V173.465Z" fill="#102B6E"/>
<path d="M166.82 206.976H134.418V207.861H166.82V206.976Z" fill="#092978"/>
<path fill-rule="evenodd" clip-rule="evenodd" d="M251.52 37.0814C251.52 37.4446 251.225 37.7625 250.84 37.7625H248.552V40.0556C248.552 40.4189 248.257 40.7367 247.872 40.7367C247.509 40.7367 247.192 40.4416 247.192 40.0556V37.7625H244.903C244.541 37.7625 244.224 37.4673 244.224 37.0814C244.224 36.7181 244.518 36.4003 244.903 36.4003H247.192V34.1071C247.192 33.7439 247.487 33.426 247.872 33.426C248.234 33.426 248.552 33.7212 248.552 34.1071V36.4003H250.84C251.225 36.4003 251.52 36.7181 251.52 37.0814Z" fill="#219EF8"/>
<path d="M220.25 44.5964C219.82 44.1651 219.208 43.8926 218.528 43.8926C217.848 43.8926 217.237 44.1651 216.806 44.5964C216.376 45.0278 216.104 45.6408 216.104 46.3219C216.104 47.0031 216.376 47.6161 216.806 48.0474C217.237 48.4788 217.848 48.7513 218.528 48.7513C219.208 48.7513 219.82 48.4788 220.25 48.0474C220.681 47.6161 220.953 47.0031 220.953 46.3219C220.953 45.6408 220.681 45.0505 220.25 44.5964ZM218.528 42.5304C219.57 42.5304 220.522 42.9617 221.202 43.6429C221.882 44.324 222.312 45.2775 222.312 46.3219C222.312 47.3663 221.882 48.3199 221.202 49.001C220.522 49.6821 219.57 50.1135 218.528 50.1135C217.486 50.1135 216.534 49.6821 215.854 49.001C215.175 48.3199 214.744 47.3663 214.744 46.3219C214.744 45.2775 215.175 44.324 215.854 43.6429C216.534 42.9617 217.486 42.5304 218.528 42.5304Z" fill="#F18E00"/>
<path fill-rule="evenodd" clip-rule="evenodd" d="M190.635 31.8367C190.975 31.8367 191.247 32.1092 191.247 32.4497V34.5158H193.309C193.649 34.5158 193.921 34.7883 193.921 35.1288C193.921 35.4694 193.649 35.7418 193.309 35.7418H191.247V37.8079C191.247 38.1485 190.975 38.4209 190.635 38.4209C190.295 38.4209 190.023 38.1485 190.023 37.8079V35.7418H187.961C187.622 35.7418 187.35 35.4694 187.35 35.1288C187.35 34.7883 187.622 34.5158 187.961 34.5158H190.023V32.4497C190.023 32.1092 190.295 31.8367 190.635 31.8367Z" fill="#219EF8"/>
</g>
<defs>
<linearGradient id="paint0_linear" x1="280.164" y1="63.3009" x2="280.164" y2="213.492" gradientUnits="userSpaceOnUse">
<stop stop-color="#0048FF"/>
<stop offset="0.1305" stop-color="#0242E7"/>
<stop offset="0.4122" stop-color="#0537B7"/>
<stop offset="0.6611" stop-color="#073095"/>
<stop offset="0.8656" stop-color="#082B80"/>
<stop offset="1" stop-color="#092978"/>
</linearGradient>
<linearGradient id="paint1_linear" x1="280.164" y1="216.148" x2="280.164" y2="43.8396" gradientUnits="userSpaceOnUse">
<stop stop-color="#1E9DF8"/>
<stop offset="0.1213" stop-color="#41ACF9"/>
<stop offset="0.3514" stop-color="#7DC7FB"/>
<stop offset="0.5625" stop-color="#ADDBFD"/>
<stop offset="0.7477" stop-color="#CFEAFE"/>
<stop offset="0.8999" stop-color="#E4F4FF"/>
<stop offset="1" stop-color="#ECF7FF"/>
</linearGradient>
<linearGradient id="paint2_linear" x1="284.248" y1="167.061" x2="284.253" y2="104.616" gradientUnits="userSpaceOnUse">
<stop stop-color="#1E9DF8"/>
<stop offset="0.1057" stop-color="#36A8F9"/>
<stop offset="0.5467" stop-color="#97D2FC"/>
<stop offset="0.8543" stop-color="#D4EDFE"/>
<stop offset="1" stop-color="#ECF7FF"/>
</linearGradient>
<linearGradient id="paint3_linear" x1="293.293" y1="133.398" x2="293.293" y2="56.1508" gradientUnits="userSpaceOnUse">
<stop stop-color="#1E9DF8"/>
<stop offset="0.1057" stop-color="#36A8F9"/>
<stop offset="0.5467" stop-color="#97D2FC"/>
<stop offset="0.8543" stop-color="#D4EDFE"/>
<stop offset="1" stop-color="#ECF7FF"/>
</linearGradient>
<linearGradient id="paint4_linear" x1="238.555" y1="127.572" x2="250.998" y2="64.8285" gradientUnits="userSpaceOnUse">
<stop stop-color="#0051DD"/>
<stop offset="1" stop-color="#52BCFF"/>
</linearGradient>
<linearGradient id="paint5_linear" x1="245.342" y1="114.855" x2="245.397" y2="83.912" gradientUnits="userSpaceOnUse">
<stop stop-color="#1E9DF8"/>
<stop offset="0.1213" stop-color="#41ACF9"/>
<stop offset="0.3514" stop-color="#7DC7FB"/>
<stop offset="0.5625" stop-color="#ADDBFD"/>
<stop offset="0.7477" stop-color="#CFEAFE"/>
<stop offset="0.8999" stop-color="#E4F4FF"/>
<stop offset="1" stop-color="#ECF7FF"/>
</linearGradient>
<linearGradient id="paint6_linear" x1="144.897" y1="170.942" x2="144.943" y2="162.196" gradientUnits="userSpaceOnUse">
<stop stop-color="#1E9DF8"/>
<stop offset="1" stop-color="#B9E4FF"/>
</linearGradient>
<clipPath id="clip0">
<rect width="400" height="230" fill="white"/>
</clipPath>
</defs>
</svg>
