<svg width="145" height="80" viewBox="0 0 145 80" fill="none" xmlns="http://www.w3.org/2000/svg">
<path d="M81.552 48.216C79.856 48.216 78.368 47.864 77.088 47.16C75.824 46.456 74.84 45.448 74.136 44.136C73.448 42.824 73.104 41.288 73.104 39.528C73.104 37.784 73.448 36.256 74.136 34.944C74.84 33.632 75.824 32.624 77.088 31.92C78.368 31.216 79.856 30.864 81.552 30.864C83.584 30.864 85.368 31.4 86.904 32.472C87.176 32.664 87.368 32.872 87.48 33.096C87.608 33.32 87.672 33.608 87.672 33.96C87.672 34.456 87.528 34.88 87.24 35.232C86.968 35.568 86.632 35.736 86.232 35.736C85.992 35.736 85.776 35.704 85.584 35.64C85.392 35.56 85.168 35.44 84.912 35.28C84.352 34.944 83.824 34.704 83.328 34.56C82.832 34.416 82.32 34.344 81.792 34.344C80.368 34.344 79.304 34.776 78.6 35.64C77.912 36.488 77.568 37.784 77.568 39.528C77.568 41.288 77.912 42.6 78.6 43.464C79.304 44.312 80.368 44.736 81.792 44.736C82.272 44.736 82.736 44.664 83.184 44.52C83.632 44.36 84.208 44.12 84.912 43.8C85.248 43.624 85.496 43.504 85.656 43.44C85.816 43.376 86.008 43.344 86.232 43.344C86.632 43.344 86.968 43.52 87.24 43.872C87.528 44.208 87.672 44.624 87.672 45.12C87.672 45.456 87.608 45.744 87.48 45.984C87.368 46.208 87.176 46.416 86.904 46.608C85.368 47.68 83.584 48.216 81.552 48.216ZM103.154 39.216C104.146 39.52 104.906 40.032 105.434 40.752C105.962 41.456 106.226 42.328 106.226 43.368C106.226 44.296 105.978 45.112 105.482 45.816C105.002 46.504 104.306 47.04 103.394 47.424C102.498 47.808 101.442 48 100.226 48H93.8416C93.1856 48 92.6816 47.824 92.3296 47.472C91.9776 47.12 91.8016 46.616 91.8016 45.96V33.12C91.8016 32.464 91.9776 31.96 92.3296 31.608C92.6816 31.256 93.1856 31.08 93.8416 31.08H99.9856C101.762 31.08 103.17 31.48 104.21 32.28C105.266 33.064 105.794 34.128 105.794 35.472C105.794 36.336 105.562 37.104 105.098 37.776C104.634 38.432 103.986 38.912 103.154 39.216ZM96.0976 37.728H99.2416C100.074 37.728 100.682 37.6 101.066 37.344C101.45 37.088 101.642 36.68 101.642 36.12C101.642 35.528 101.45 35.096 101.066 34.824C100.682 34.552 100.074 34.416 99.2416 34.416H96.0976V37.728ZM99.6736 44.664C100.554 44.664 101.178 44.528 101.546 44.256C101.93 43.968 102.122 43.504 102.122 42.864C102.122 42.224 101.93 41.768 101.546 41.496C101.178 41.208 100.554 41.064 99.6736 41.064H96.0976V44.664H99.6736ZM116.849 48.216C115.569 48.216 114.377 48.08 113.273 47.808C112.185 47.52 111.289 47.128 110.585 46.632C110.313 46.424 110.113 46.208 109.985 45.984C109.873 45.76 109.817 45.472 109.817 45.12C109.817 44.64 109.961 44.224 110.249 43.872C110.537 43.52 110.873 43.344 111.257 43.344C111.465 43.344 111.665 43.376 111.857 43.44C112.049 43.504 112.289 43.624 112.577 43.8C113.233 44.168 113.881 44.432 114.521 44.592C115.177 44.752 115.913 44.832 116.729 44.832C117.673 44.832 118.385 44.696 118.865 44.424C119.361 44.136 119.609 43.72 119.609 43.176C119.609 42.808 119.377 42.496 118.913 42.24C118.465 41.968 117.601 41.704 116.321 41.448C114.737 41.112 113.497 40.712 112.601 40.248C111.705 39.784 111.073 39.24 110.705 38.616C110.353 37.976 110.177 37.208 110.177 36.312C110.177 35.288 110.481 34.36 111.089 33.528C111.697 32.696 112.529 32.048 113.585 31.584C114.657 31.104 115.857 30.864 117.185 30.864C118.353 30.864 119.393 30.992 120.305 31.248C121.217 31.504 122.049 31.904 122.801 32.448C123.089 32.656 123.289 32.88 123.401 33.12C123.529 33.344 123.593 33.624 123.593 33.96C123.593 34.44 123.449 34.856 123.161 35.208C122.889 35.56 122.561 35.736 122.177 35.736C121.969 35.736 121.777 35.712 121.601 35.664C121.425 35.6 121.177 35.472 120.857 35.28C120.777 35.232 120.545 35.112 120.161 34.92C119.793 34.712 119.353 34.552 118.841 34.44C118.345 34.312 117.801 34.248 117.209 34.248C116.393 34.248 115.737 34.408 115.241 34.728C114.745 35.032 114.497 35.44 114.497 35.952C114.497 36.256 114.585 36.504 114.761 36.696C114.937 36.888 115.265 37.08 115.745 37.272C116.225 37.448 116.937 37.632 117.881 37.824C119.417 38.16 120.625 38.568 121.505 39.048C122.385 39.512 123.009 40.056 123.377 40.68C123.745 41.304 123.929 42.04 123.929 42.888C123.929 43.944 123.633 44.88 123.041 45.696C122.449 46.496 121.617 47.12 120.545 47.568C119.489 48 118.257 48.216 116.849 48.216Z" fill="white"/>
<rect x="16" y="18" width="44" height="44" rx="8" fill="white"/>
<g clip-path="url(#clip0)">
<g opacity="0.9">
<path d="M33.8896 50.5862C30.7792 46.3735 37.0638 36.4266 49.2183 27.3606C49.2661 27.3286 49.3459 27.2805 49.3937 27.2325C45.8367 24.029 41.0036 22.3151 35.8834 22.9398C26.4885 24.077 19.8051 32.6464 20.9376 42.0808C22.0701 51.5152 30.6037 58.2266 39.9987 57.0893C46.1238 56.3525 51.1005 52.4442 53.509 47.2065C44.1938 52.6044 36.3779 53.9819 33.8896 50.5862Z" fill="#2B59B2"/>
<ellipse cx="38" cy="40" rx="14.6094" ry="14.6094" fill="#498AEF" fill-opacity="0.4"/>
<circle cx="38" cy="40" r="8.59375" fill="#498AEF" fill-opacity="0.7"/>
</g>
<g clip-path="url(#clip1)">
<path d="M42.9553 31.4933V30.6578H32.6904V31.4933C32.6904 34.0097 33.6902 36.4234 35.4696 38.2028L35.8381 38.5713C36.1699 38.9031 36.3564 39.3532 36.3564 39.8228C36.3564 40.2925 36.1699 40.7426 35.8381 41.0744L35.4696 41.4429C33.6902 43.2223 32.6904 45.6357 32.6904 48.1524V48.9879H42.9553V48.1524C42.9553 45.636 41.9555 43.2223 40.176 41.4428L39.8076 41.0744C39.4758 40.7426 39.2892 40.2924 39.2892 39.8228C39.2892 39.3532 39.4758 38.903 39.8076 38.5712L40.176 38.2028C41.9555 36.4234 42.9553 34.0101 42.9553 31.4933Z" fill="white"/>
<path d="M43.6885 30.6578H31.9573C31.5522 30.6578 31.2241 30.3297 31.2241 29.9246C31.2241 29.5195 31.5522 29.1914 31.9573 29.1914H43.6886C44.0937 29.1914 44.4218 29.5195 44.4218 29.9246C44.4218 30.3297 44.0937 30.6578 43.6885 30.6578Z" fill="#1F4080"/>
<path d="M43.6885 50.4542H31.9573C31.5522 50.4542 31.2241 50.1261 31.2241 49.721C31.2241 49.3159 31.5522 48.9878 31.9573 48.9878H43.6886C44.0937 48.9878 44.4218 49.3159 44.4218 49.721C44.4218 50.1261 44.0937 50.4542 43.6885 50.4542Z" fill="#1F4080"/>
<path d="M37.8228 39.8229C37.6201 39.8229 37.4562 39.659 37.4562 39.4563C37.4562 38.6894 37.1578 37.969 36.6156 37.4268L36.2475 37.0587C35.6778 36.4894 35.2811 35.8467 34.9373 35.2371C34.9017 35.174 34.8859 35.0956 34.8915 35.0234C34.8915 35.0234 34.8977 34.9445 34.9307 34.8224C35.1063 34.1739 35.6866 33.738 36.3748 33.738C36.7076 33.738 37.0273 33.8422 37.2989 34.0387C37.6355 34.2821 38.4842 34.6905 40.3891 34.6905C40.7579 34.6905 40.884 34.9075 40.921 35.001C41.0827 35.4101 40.6845 35.8434 39.7369 36.7347C39.6071 36.8567 39.4891 36.9678 39.3985 37.058L39.0297 37.4268C38.4878 37.969 38.1894 38.6894 38.1894 39.4563C38.1895 39.659 38.0256 39.8229 37.8228 39.8229Z" fill="#2B59B2"/>
<path d="M41.4646 47.8883H34.181C34.0791 47.8883 33.9812 47.8457 33.9123 47.7709C33.843 47.6958 33.8078 47.5954 33.8155 47.4935C33.9072 46.3046 34.3841 45.8104 34.9358 45.2385C35.0103 45.1615 35.0876 45.0812 35.1671 44.9966C35.6276 44.5046 36.278 44.2223 36.9518 44.2223H38.6939C39.3681 44.2223 40.0184 44.5046 40.4785 44.9966C40.5581 45.0816 40.6358 45.1619 40.7102 45.2389C41.262 45.8108 41.7385 46.3046 41.8302 47.4931C41.8378 47.595 41.803 47.6955 41.7334 47.7706C41.6644 47.8457 41.5665 47.8883 41.4646 47.8883Z" fill="#2B59B2"/>
<path d="M37.8229 41.6559C37.6202 41.6559 37.4563 41.492 37.4563 41.2893V40.9226C37.4563 40.7199 37.6202 40.556 37.8229 40.556C38.0257 40.556 38.1895 40.7199 38.1895 40.9226V41.2893C38.1895 41.492 38.0257 41.6559 37.8229 41.6559Z" fill="#2B59B2"/>
<path d="M37.8229 43.4889C37.6202 43.4889 37.4563 43.325 37.4563 43.1223V42.7557C37.4563 42.5529 37.6202 42.389 37.8229 42.389C38.0257 42.389 38.1895 42.5529 38.1895 42.7557V43.1223C38.1895 43.325 38.0257 43.4889 37.8229 43.4889Z" fill="#2B59B2"/>
</g>
</g>
<defs>
<clipPath id="clip0">
<rect width="34.375" height="34.375" fill="white" transform="translate(20.8125 22.8125)"/>
</clipPath>
<clipPath id="clip1">
<rect width="21.2629" height="21.2629" fill="white" transform="translate(27.1914 29.1914)"/>
</clipPath>
</defs>
</svg>
