<svg width="145" height="80" viewBox="0 0 145 80" fill="none" xmlns="http://www.w3.org/2000/svg">
<path d="M81.552 48.216C79.856 48.216 78.368 47.864 77.088 47.16C75.824 46.456 74.84 45.448 74.136 44.136C73.448 42.824 73.104 41.288 73.104 39.528C73.104 37.784 73.448 36.256 74.136 34.944C74.84 33.632 75.824 32.624 77.088 31.92C78.368 31.216 79.856 30.864 81.552 30.864C83.584 30.864 85.368 31.4 86.904 32.472C87.176 32.664 87.368 32.872 87.48 33.096C87.608 33.32 87.672 33.608 87.672 33.96C87.672 34.456 87.528 34.88 87.24 35.232C86.968 35.568 86.632 35.736 86.232 35.736C85.992 35.736 85.776 35.704 85.584 35.64C85.392 35.56 85.168 35.44 84.912 35.28C84.352 34.944 83.824 34.704 83.328 34.56C82.832 34.416 82.32 34.344 81.792 34.344C80.368 34.344 79.304 34.776 78.6 35.64C77.912 36.488 77.568 37.784 77.568 39.528C77.568 41.288 77.912 42.6 78.6 43.464C79.304 44.312 80.368 44.736 81.792 44.736C82.272 44.736 82.736 44.664 83.184 44.52C83.632 44.36 84.208 44.12 84.912 43.8C85.248 43.624 85.496 43.504 85.656 43.44C85.816 43.376 86.008 43.344 86.232 43.344C86.632 43.344 86.968 43.52 87.24 43.872C87.528 44.208 87.672 44.624 87.672 45.12C87.672 45.456 87.608 45.744 87.48 45.984C87.368 46.208 87.176 46.416 86.904 46.608C85.368 47.68 83.584 48.216 81.552 48.216ZM103.154 39.216C104.146 39.52 104.906 40.032 105.434 40.752C105.962 41.456 106.226 42.328 106.226 43.368C106.226 44.296 105.978 45.112 105.482 45.816C105.002 46.504 104.306 47.04 103.394 47.424C102.498 47.808 101.442 48 100.226 48H93.8416C93.1856 48 92.6816 47.824 92.3296 47.472C91.9776 47.12 91.8016 46.616 91.8016 45.96V33.12C91.8016 32.464 91.9776 31.96 92.3296 31.608C92.6816 31.256 93.1856 31.08 93.8416 31.08H99.9856C101.762 31.08 103.17 31.48 104.21 32.28C105.266 33.064 105.794 34.128 105.794 35.472C105.794 36.336 105.562 37.104 105.098 37.776C104.634 38.432 103.986 38.912 103.154 39.216ZM96.0976 37.728H99.2416C100.074 37.728 100.682 37.6 101.066 37.344C101.45 37.088 101.642 36.68 101.642 36.12C101.642 35.528 101.45 35.096 101.066 34.824C100.682 34.552 100.074 34.416 99.2416 34.416H96.0976V37.728ZM99.6736 44.664C100.554 44.664 101.178 44.528 101.546 44.256C101.93 43.968 102.122 43.504 102.122 42.864C102.122 42.224 101.93 41.768 101.546 41.496C101.178 41.208 100.554 41.064 99.6736 41.064H96.0976V44.664H99.6736ZM116.849 48.216C115.569 48.216 114.377 48.08 113.273 47.808C112.185 47.52 111.289 47.128 110.585 46.632C110.313 46.424 110.113 46.208 109.985 45.984C109.873 45.76 109.817 45.472 109.817 45.12C109.817 44.64 109.961 44.224 110.249 43.872C110.537 43.52 110.873 43.344 111.257 43.344C111.465 43.344 111.665 43.376 111.857 43.44C112.049 43.504 112.289 43.624 112.577 43.8C113.233 44.168 113.881 44.432 114.521 44.592C115.177 44.752 115.913 44.832 116.729 44.832C117.673 44.832 118.385 44.696 118.865 44.424C119.361 44.136 119.609 43.72 119.609 43.176C119.609 42.808 119.377 42.496 118.913 42.24C118.465 41.968 117.601 41.704 116.321 41.448C114.737 41.112 113.497 40.712 112.601 40.248C111.705 39.784 111.073 39.24 110.705 38.616C110.353 37.976 110.177 37.208 110.177 36.312C110.177 35.288 110.481 34.36 111.089 33.528C111.697 32.696 112.529 32.048 113.585 31.584C114.657 31.104 115.857 30.864 117.185 30.864C118.353 30.864 119.393 30.992 120.305 31.248C121.217 31.504 122.049 31.904 122.801 32.448C123.089 32.656 123.289 32.88 123.401 33.12C123.529 33.344 123.593 33.624 123.593 33.96C123.593 34.44 123.449 34.856 123.161 35.208C122.889 35.56 122.561 35.736 122.177 35.736C121.969 35.736 121.777 35.712 121.601 35.664C121.425 35.6 121.177 35.472 120.857 35.28C120.777 35.232 120.545 35.112 120.161 34.92C119.793 34.712 119.353 34.552 118.841 34.44C118.345 34.312 117.801 34.248 117.209 34.248C116.393 34.248 115.737 34.408 115.241 34.728C114.745 35.032 114.497 35.44 114.497 35.952C114.497 36.256 114.585 36.504 114.761 36.696C114.937 36.888 115.265 37.08 115.745 37.272C116.225 37.448 116.937 37.632 117.881 37.824C119.417 38.16 120.625 38.568 121.505 39.048C122.385 39.512 123.009 40.056 123.377 40.68C123.745 41.304 123.929 42.04 123.929 42.888C123.929 43.944 123.633 44.88 123.041 45.696C122.449 46.496 121.617 47.12 120.545 47.568C119.489 48 118.257 48.216 116.849 48.216Z" fill="#2B59B2"/>
<g clip-path="url(#clip0)">
<g opacity="0.9">
<path d="M33.217 52.3185C29.5976 47.4165 36.9106 35.8419 51.054 25.2924C51.1097 25.2551 51.2025 25.1992 51.2582 25.1432C47.1191 21.4155 41.4951 19.4212 35.5371 20.1481C24.6047 21.4714 16.8277 31.4431 18.1456 42.4213C19.4634 53.3995 29.3934 61.2091 40.3258 59.8858C47.4532 59.0284 53.2442 54.4805 56.0469 48.3857C45.2073 54.6669 36.1125 56.2699 33.217 52.3185Z" fill="#2B59B2"/>
<ellipse cx="38" cy="40" rx="17" ry="17" fill="#498AEF" fill-opacity="0.4"/>
<circle cx="38" cy="40" r="10" fill="#498AEF" fill-opacity="0.7"/>
</g>
<g clip-path="url(#clip1)">
<path d="M43.7661 30.1012V29.129H31.8215V30.1012C31.8215 33.0294 32.9849 35.838 35.0555 37.9087L35.4843 38.3374C35.8703 38.7235 36.0874 39.2473 36.0874 39.7938C36.0874 40.3402 35.8703 40.8641 35.4843 41.2501L35.0555 41.6789C32.9849 43.7495 31.8215 46.5578 31.8215 49.4863V50.4585H43.7661V49.4863C43.7661 46.5582 42.6027 43.7495 40.5321 41.6788L40.1033 41.2501C39.7173 40.864 39.5001 40.3402 39.5001 39.7937C39.5001 39.2473 39.7173 38.7234 40.1033 38.3374L40.5321 37.9086C42.6027 35.8381 43.7661 33.0298 43.7661 30.1012Z" fill="white"/>
<path d="M44.6193 29.1291H30.9684C30.497 29.1291 30.1152 28.7473 30.1152 28.2759C30.1152 27.8045 30.497 27.4227 30.9684 27.4227H44.6193C45.0907 27.4227 45.4725 27.8045 45.4725 28.2759C45.4725 28.7473 45.0907 29.1291 44.6193 29.1291Z" fill="#1F4080"/>
<path d="M44.6193 52.165H30.9684C30.497 52.165 30.1152 51.7831 30.1152 51.3118C30.1152 50.8404 30.497 50.4586 30.9684 50.4586H44.6193C45.0907 50.4586 45.4725 50.8404 45.4725 51.3118C45.4725 51.7831 45.0907 52.165 44.6193 52.165Z" fill="#1F4080"/>
<path d="M37.7937 39.794C37.5577 39.794 37.3671 39.6033 37.3671 39.3674C37.3671 38.4749 37.0198 37.6367 36.3889 37.0057L35.9606 36.5774C35.2976 35.9149 34.836 35.1671 34.4359 34.4577C34.3945 34.3844 34.3762 34.2931 34.3826 34.209C34.3826 34.209 34.3898 34.1173 34.4283 33.9752C34.6326 33.2206 35.3079 32.7134 36.1086 32.7134C36.4959 32.7134 36.868 32.8345 37.184 33.0632C37.5757 33.3465 38.5632 33.8217 40.7798 33.8217C41.209 33.8217 41.3557 34.0742 41.3988 34.183C41.5869 34.6591 41.1236 35.1633 40.0209 36.2003C39.8699 36.3424 39.7326 36.4716 39.6272 36.5766L39.198 37.0058C38.5675 37.6367 38.2202 38.4749 38.2202 39.3674C38.2203 39.6033 38.0296 39.794 37.7937 39.794Z" fill="#2B59B2"/>
<path d="M42.0314 49.1791H33.5559C33.4373 49.1791 33.3234 49.1296 33.2432 49.0426C33.1626 48.9551 33.1216 48.8382 33.1306 48.7197C33.2373 47.3362 33.7923 46.7612 34.4343 46.0957C34.5209 46.0061 34.6109 45.9127 34.7034 45.8142C35.2392 45.2417 35.996 44.9132 36.7801 44.9132H38.8073C39.5918 44.9132 40.3485 45.2417 40.8839 45.8142C40.9765 45.9131 41.0669 46.0066 41.1535 46.0961C41.7956 46.7616 42.3501 47.3363 42.4568 48.7193C42.4657 48.8379 42.4252 48.9547 42.3441 49.0422C42.2639 49.1296 42.15 49.1791 42.0314 49.1791Z" fill="#2B59B2"/>
<path d="M37.7938 41.9269C37.5579 41.9269 37.3672 41.7362 37.3672 41.5003V41.0737C37.3672 40.8378 37.5579 40.6471 37.7938 40.6471C38.0297 40.6471 38.2204 40.8378 38.2204 41.0737V41.5003C38.2204 41.7362 38.0297 41.9269 37.7938 41.9269Z" fill="#2B59B2"/>
<path d="M37.7938 44.0599C37.5579 44.0599 37.3672 43.8692 37.3672 43.6333V43.2066C37.3672 42.9707 37.5579 42.78 37.7938 42.78C38.0297 42.78 38.2204 42.9707 38.2204 43.2066V43.6333C38.2204 43.8692 38.0297 44.0599 37.7938 44.0599Z" fill="#2B59B2"/>
</g>
</g>
<defs>
<clipPath id="clip0">
<rect width="40" height="40" fill="white" transform="translate(18 20)"/>
</clipPath>
<clipPath id="clip1">
<rect width="24.7423" height="24.7423" fill="white" transform="translate(25.4226 27.4227)"/>
</clipPath>
</defs>
</svg>
