<svg width="32" height="32" viewBox="0 0 32 32" fill="none" xmlns="http://www.w3.org/2000/svg">
<path d="M13.8682 29.5H6.6875C5.30908 29.5 4.18066 28.3784 4.18066 27V8.125C4.18066 6.74658 5.30908 5.625 6.6875 5.625H10.6182V6.25C10.6182 8.31787 12.3003 10 14.3682 10C16.4358 10 18.1182 8.31787 18.1182 6.25V5.625H22.0557C23.4341 5.625 24.5557 6.74658 24.5557 8.125V17.75C24.5557 18.4404 25.1152 19 25.8057 19C26.4958 19 27.0557 18.4404 27.0557 17.75V8.125C27.0557 5.36792 24.8125 3.125 22.0557 3.125H18.1182V1.25C18.1182 0.55957 17.5583 0 16.8682 0H11.8682C11.1777 0 10.6182 0.55957 10.6182 1.25V3.125H6.6875C3.93042 3.125 1.6875 5.36792 1.6875 8.125V27C1.6875 29.7571 3.93042 32 6.6875 32H13.8682C14.5583 32 15.1182 31.4404 15.1182 30.75C15.1182 30.0596 14.5583 29.5 13.8682 29.5ZM13.1182 2.5H15.6182V6.25C15.6182 6.93921 15.0574 7.5 14.3682 7.5C13.6787 7.5 13.1182 6.93921 13.1182 6.25V2.5ZM30.1321 22.1028L23.9458 30.7439C23.9321 30.7627 23.9182 30.7813 23.9038 30.7993C23.342 31.4983 22.5068 31.9333 21.6123 31.9929C21.5415 31.9976 21.4707 32 21.4001 32C20.5789 32 19.7805 31.6833 19.1826 31.114L15.1897 27.28C14.6919 26.802 14.6758 26.0107 15.1541 25.5127C15.6318 25.0149 16.4233 24.9985 16.9214 25.4771L20.9102 29.3069C21.1038 29.4912 21.3291 29.5059 21.4458 29.4985C21.5588 29.491 21.7698 29.4487 21.938 29.2537L28.0994 20.6475C28.501 20.0862 29.2817 19.9568 29.8433 20.3586C30.4045 20.7605 30.5339 21.5413 30.1321 22.1028V22.1028ZM10.3057 14.9375C10.3057 15.6279 9.74585 16.1875 9.05566 16.1875H8.43066C7.74023 16.1875 7.18066 15.6279 7.18066 14.9375C7.18066 14.2471 7.74023 13.6875 8.43066 13.6875H9.05566C9.74585 13.6875 10.3057 14.2471 10.3057 14.9375V14.9375ZM21.6807 14.9375C21.6807 15.6279 21.1208 16.1875 20.4307 16.1875H13.4307C12.7402 16.1875 12.1807 15.6279 12.1807 14.9375C12.1807 14.2471 12.7402 13.6875 13.4307 13.6875H20.4307C21.1208 13.6875 21.6807 14.2471 21.6807 14.9375V14.9375ZM10.3057 19.9375C10.3057 20.6279 9.74585 21.1875 9.05566 21.1875H8.43066C7.74023 21.1875 7.18066 20.6279 7.18066 19.9375C7.18066 19.2471 7.74023 18.6875 8.43066 18.6875H9.05566C9.74585 18.6875 10.3057 19.2471 10.3057 19.9375ZM21.6807 19.9375C21.6807 20.6279 21.1208 21.1875 20.4307 21.1875H13.4307C12.7402 21.1875 12.1807 20.6279 12.1807 19.9375C12.1807 19.2471 12.7402 18.6875 13.4307 18.6875H20.4307C21.1208 18.6875 21.6807 19.2471 21.6807 19.9375Z" fill="#2B59B2"/>
</svg>
