<svg width="32" height="32" viewBox="0 0 32 32" fill="none" xmlns="http://www.w3.org/2000/svg">
<path d="M16.0688 32H15.9312C14.2935 32 12.9333 30.7715 12.7671 29.1421L12.7634 29.1062C12.6799 28.2864 12.158 27.584 11.4011 27.2734C11.3684 27.26 11.3362 27.2466 11.304 27.2332C10.5359 26.9102 9.66504 27.0303 9.03027 27.5464C7.74609 28.5903 5.90625 28.4844 4.75049 27.2998L4.66699 27.2141C3.55249 26.0718 3.45972 24.2673 4.45142 23.0171L4.45923 23.0071C4.97705 22.3545 5.1001 21.4814 4.78101 20.7288C4.76172 20.6836 4.74292 20.6382 4.72412 20.5925C4.41577 19.8398 3.71436 19.3201 2.8938 19.2366L2.85815 19.2329C1.22852 19.0667 0 17.7065 0 16.0688V15.9312C0 14.2935 1.22852 12.9333 2.85791 12.7671L2.89355 12.7634C3.71387 12.6799 4.4165 12.1572 4.72729 11.3997C4.74048 11.3669 4.75415 11.3342 4.76782 11.3015C5.09009 10.5354 4.96997 9.66553 4.45435 9.03125L4.44092 9.01465C3.40942 7.74561 3.50342 5.91626 4.65991 4.75977L4.75977 4.66016C5.91626 3.50342 7.74561 3.40942 9.01465 4.44116L9.02026 4.44556C9.66187 4.96729 10.5354 5.09058 11.3008 4.76831C11.3323 4.75513 11.364 4.74194 11.396 4.72876C12.1558 4.4165 12.6799 3.71313 12.7634 2.89355L12.7671 2.85791C12.9333 1.22852 14.2935 0 15.9312 0H16.0688C17.7065 0 19.0667 1.22852 19.2329 2.85791C19.3186 3.69751 19.8545 4.41895 20.6318 4.74023L20.699 4.76807C21.4778 5.0957 22.3674 4.98413 23.02 4.47681L23.0752 4.43384C24.3384 3.45166 26.1445 3.56421 27.2761 4.69604L27.304 4.72363C28.4355 5.85547 28.5481 7.66138 27.5657 8.9248L27.5232 8.97974C27.0156 9.63232 26.9041 10.522 27.2319 11.3015L27.249 11.3423C27.5796 12.1362 28.3047 12.6816 29.1421 12.7671C30.7715 12.9333 32 14.2935 32 15.9312V16.0688C32 17.7065 30.7715 19.0667 29.1421 19.2329L29.1062 19.2366C28.2856 19.3201 27.5842 19.8401 27.2756 20.5933C27.2588 20.6343 27.2417 20.6758 27.2241 20.7173C26.906 21.4692 27.033 22.3364 27.5552 22.9807C27.5564 22.9824 27.5579 22.9839 27.5588 22.9854C28.5906 24.2544 28.4963 26.0837 27.3398 27.2402L27.2402 27.3401C26.0837 28.4966 24.2542 28.5906 22.9851 27.5588L22.9705 27.5471C22.335 27.0303 21.4639 26.9102 20.6968 27.2329C20.6638 27.2466 20.6313 27.26 20.5991 27.2734C19.842 27.5842 19.3201 28.2866 19.2363 29.1064L19.2329 29.1421C19.0667 30.7715 17.7065 32 16.0688 32V32ZM10.4214 24.5535C11.0452 24.5535 11.6741 24.6765 12.2722 24.9282C12.2979 24.939 12.3245 24.95 12.3508 24.9607C13.9619 25.6221 15.0732 27.1135 15.2507 28.8528L15.2542 28.8887C15.2898 29.2371 15.5808 29.5 15.9312 29.5H16.0688C16.4192 29.5 16.7102 29.2371 16.7458 28.8887L16.7493 28.853C16.9268 27.1135 18.0381 25.6221 19.6494 24.9607C19.6755 24.95 19.7021 24.939 19.7285 24.928C21.3477 24.2468 23.1941 24.5068 24.5469 25.6064L24.5613 25.6184C24.8337 25.8398 25.2251 25.8196 25.4724 25.5723L25.5723 25.4724C25.8191 25.2256 25.8396 24.8357 25.6208 24.5642C25.6196 24.563 25.6187 24.5615 25.6177 24.5605C24.5088 23.1965 24.2419 21.3508 24.9216 19.7437C24.9353 19.7112 24.9487 19.679 24.9619 19.6465C25.6213 18.0366 27.1121 16.9268 28.853 16.7493L28.8889 16.7458C29.2373 16.7102 29.5 16.4192 29.5 16.0688V15.9312C29.5 15.5808 29.2371 15.2898 28.8887 15.2542C27.137 15.0757 25.6245 13.9453 24.9417 12.3042L24.9277 12.2712C24.2498 10.6594 24.4883 8.8103 25.5498 7.44507L25.5923 7.39038C25.8025 7.12012 25.7783 6.73364 25.5364 6.49146L25.5085 6.46387C25.2664 6.22168 24.8799 6.19751 24.6099 6.40771L24.5547 6.45068C23.1897 7.51172 21.3406 7.75024 19.7292 7.07251L19.6758 7.05029C18.0481 6.3772 16.9248 4.86792 16.7458 3.11157C16.7102 2.76294 16.4194 2.5 16.0688 2.5H15.9312C15.5808 2.5 15.2898 2.76294 15.2544 3.11133L15.2507 3.14697C15.0735 4.8855 13.9604 6.37769 12.3462 7.04102C12.3213 7.05151 12.2961 7.06177 12.2712 7.07227C10.6528 7.75391 8.80322 7.49097 7.44409 6.38599L7.43872 6.38159C7.16626 6.16016 6.7749 6.18042 6.52759 6.42773L6.42798 6.52759C6.18042 6.7749 6.1604 7.16626 6.3811 7.43774L6.39453 7.45459C7.49365 8.80615 7.75342 10.6519 7.07251 12.271C7.06152 12.2969 7.05103 12.3225 7.04053 12.3479C6.37866 13.9612 4.88696 15.0732 3.14722 15.2507L3.11133 15.2542C2.76294 15.2898 2.50024 15.5808 2.50024 15.9312V16.0688C2.50024 16.4192 2.76294 16.7102 3.11157 16.7458L3.14697 16.7493C4.8877 16.9268 6.37842 18.0364 7.0376 19.645C7.05249 19.6812 7.06738 19.7168 7.08252 19.7524C7.75928 21.3484 7.50464 23.1904 6.41846 24.5601L6.41064 24.5698C6.19824 24.8379 6.21802 25.2239 6.4563 25.4683L6.53979 25.554C6.78662 25.8066 7.1792 25.8293 7.45337 25.6064C8.30615 24.9131 9.35596 24.5535 10.4214 24.5535V24.5535ZM18.1897 22.9131C18.8479 22.7048 19.2126 22.0024 19.0042 21.3442C18.7959 20.686 18.0935 20.3213 17.4353 20.5295C16.9734 20.6758 16.4905 20.75 16 20.75C13.3809 20.75 11.25 18.6191 11.25 16C11.25 13.3809 13.3809 11.25 16 11.25C18.6191 11.25 20.75 13.3809 20.75 16C20.75 16.4551 20.686 16.9048 20.5596 17.3367C20.366 17.9993 20.7458 18.6934 21.4084 18.8872C22.0713 19.0813 22.7654 18.7012 22.9592 18.0383C23.1521 17.3787 23.25 16.6929 23.25 16C23.25 12.0024 19.9976 8.75 16 8.75C12.0024 8.75 8.75 12.0024 8.75 16C8.75 19.9976 12.0024 23.25 16 23.25C16.7466 23.25 17.4834 23.1367 18.1897 22.9131Z" fill="#2B59B2"/>
</svg>
