<svg width="32" height="32" viewBox="0 0 32 32" fill="none" xmlns="http://www.w3.org/2000/svg">
<g clip-path="url(#clip0)">
<path d="M22.9316 6.75098H14.0622C13.3717 6.75098 12.812 7.31066 12.812 8.00116C12.812 8.69166 13.3717 9.25134 14.0622 9.25134H22.9316C23.6221 9.25134 24.1818 8.69166 24.1818 8.00116C24.1818 7.31066 23.622 6.75098 22.9316 6.75098Z" fill="#2B59B2"/>
<path d="M22.9316 11.7517H14.0622C13.3717 11.7517 12.812 12.3114 12.812 13.0019C12.812 13.6924 13.3717 14.2521 14.0622 14.2521H22.9316C23.622 14.2521 24.1818 13.6924 24.1818 13.0019C24.1818 12.3114 23.6221 11.7517 22.9316 11.7517Z" fill="#2B59B2"/>
<path d="M17.8753 16.7524H14.0622C13.3717 16.7524 12.812 17.3121 12.812 18.0026C12.812 18.6931 13.3717 19.2528 14.0622 19.2528H17.8753C18.5658 19.2528 19.1254 18.6931 19.1254 18.0026C19.1254 17.3121 18.5658 16.7524 17.8753 16.7524Z" fill="#2B59B2"/>
<path d="M28.0017 17.0024C28.6922 17.0024 29.2519 16.4427 29.2519 15.7522V5.00075C29.2519 2.24331 27.0085 0 24.2512 0H12.7495C9.99361 0 7.7513 2.24081 7.74874 4.99613C4.99136 4.99613 2.74799 7.23944 2.74799 9.99687V26.9993C2.74799 29.7567 4.9913 32.0001 7.74874 32.0001H19.8755C22.6329 32.0001 24.8762 29.7568 24.8762 26.9993V26.9613C27.3396 26.6527 29.2519 24.5449 29.2519 21.9995C29.2519 21.309 28.6922 20.7493 28.0017 20.7493C27.3112 20.7493 26.7515 21.309 26.7515 21.9995C26.7515 23.3779 25.6301 24.4996 24.2517 24.4999L12.75 24.5027H12.7495C12.0817 24.5027 11.4539 24.2427 10.9817 23.7705C10.5093 23.2983 10.2491 22.6702 10.2491 22.0023V5.00075C10.2491 3.62206 11.3708 2.50038 12.7495 2.50038H24.2512C25.6299 2.50038 26.7516 3.62206 26.7516 5.00075V15.7523C26.7515 16.4428 27.3112 17.0024 28.0017 17.0024ZM12.7495 27.0029H12.7507L22.3759 27.0006C22.3751 28.3786 21.2537 29.4996 19.8755 29.4996H7.7488C6.37011 29.4996 5.24842 28.3779 5.24842 26.9992V9.99675C5.24842 8.61806 6.37011 7.49638 7.7488 7.49638V22.0023C7.7488 23.3382 8.26911 24.5942 9.21386 25.5387C10.1584 26.4831 11.4139 27.0029 12.7495 27.0029Z" fill="#2B59B2"/>
</g>
<defs>
<clipPath id="clip0">
<rect width="32" height="32" fill="white"/>
</clipPath>
</defs>
</svg>
