<svg width="32" height="32" viewBox="0 0 32 32" fill="none" xmlns="http://www.w3.org/2000/svg">
<g clip-path="url(#clip0)">
<path d="M27.1259 1.61733C26.5287 1.02201 25.8246 0.521574 25.0332 0.130011C24.6464 -0.0613018 24.1883 -0.0393018 23.8218 0.188324C23.4552 0.415887 23.2323 0.8167 23.2323 1.2482V6.6684L21.3788 7.82353L19.552 6.67227V1.24751C19.552 0.816387 19.3294 0.415824 18.9632 0.188136C18.5971 -0.0394893 18.1394 -0.0620518 17.7527 0.128574C16.9097 0.544137 16.1911 1.04501 15.6169 1.61733C14.1088 3.12064 13.075 5.0979 12.7808 7.04221C12.4264 9.38309 13.1057 11.5439 14.6936 13.1267C15.3377 13.7686 16.478 14.46 17.6183 14.8141V28.1949C17.6182 29.1938 18.0022 30.132 18.6994 30.8369C19.4018 31.5468 20.341 31.9378 21.3437 31.9378H21.3444C22.3452 31.9378 23.2864 31.549 23.9947 30.8431C24.7101 30.1301 25.1038 29.1896 25.1036 28.1949C25.1035 27.506 24.5449 26.9476 23.8561 26.9476H23.8558C23.1668 26.9478 22.6084 27.5065 22.6085 28.1954C22.6086 28.522 22.4752 28.8346 22.2333 29.0759C21.9959 29.3124 21.6803 29.4427 21.344 29.4427H21.3438C21.0124 29.4427 20.7032 29.3148 20.4732 29.0821C20.2411 28.8476 20.1134 28.5325 20.1134 28.195V13.7997C20.1134 13.144 19.6058 12.6003 18.9517 12.5551C18.1797 12.5018 16.9546 11.8573 16.455 11.3593C15.4441 10.3517 15.0153 8.95103 15.2478 7.41553C15.4429 6.12677 16.0947 4.80415 17.0568 3.72452V7.36046C17.0568 7.78896 17.2767 8.18747 17.6392 8.4159L20.7099 10.3511C21.1144 10.6061 21.6291 10.6073 22.0349 10.3545L25.1397 8.41946C25.5052 8.19159 25.7274 7.7914 25.7274 7.36065V3.77183C26.8676 5.07533 27.5364 6.71646 27.5364 8.25278C27.5364 9.10222 27.3198 10.3308 26.2879 11.3593C25.7729 11.8725 24.5469 12.5212 23.7967 12.5568C23.1316 12.5885 22.6085 13.1371 22.6085 13.803V21.8947C22.6085 22.5837 23.1671 23.1422 23.8561 23.1422C24.545 23.1422 25.1036 22.5836 25.1036 21.8947V14.828C26.2422 14.4803 27.3899 13.7839 28.0493 13.1265C29.346 11.834 30.0315 10.1488 30.0315 8.2529C30.0315 5.91134 28.9453 3.43083 27.1259 1.61733Z" fill="#2B59B2"/>
<path d="M9.59413 7.77327C9.89825 7.46464 10.0204 7.02027 9.91675 6.59952L8.54444 1.02701C8.40712 0.469509 7.90718 0.0777588 7.33306 0.0777588H4.58836C4.01424 0.0777588 3.5143 0.469572 3.37698 1.02701L2.00467 6.59952C1.90104 7.02027 2.02317 7.46464 2.32729 7.77327L4.77549 10.2586V16.2603C3.32323 16.7753 2.28036 18.1628 2.28036 19.7892V28.2571C2.28011 29.2569 2.66942 30.1968 3.37655 30.904C4.08342 31.6109 5.02299 32.0001 6.02212 32C6.02243 32 6.02287 32 6.02318 32C7.02299 32 7.96281 31.6107 8.66969 30.9039C9.37663 30.197 9.76594 29.2569 9.76582 28.2572V19.7893C9.76582 18.7895 9.37644 17.8497 8.6695 17.1427C8.26787 16.7411 7.79093 16.442 7.27068 16.2586V10.132L9.59413 7.77327ZM7.27062 19.7893V28.2574C7.27068 28.5907 7.14093 28.904 6.90531 29.1396C6.66974 29.3752 6.35649 29.5049 6.02287 29.5049H6.02249C5.68949 29.5049 5.37636 29.3752 5.14086 29.1396C4.90524 28.9039 4.77549 28.5908 4.77555 28.2575V19.7893C4.77555 19.1015 5.33518 18.5418 6.02305 18.5417C6.35631 18.5417 6.66962 18.6715 6.90524 18.9071C7.14087 19.1428 7.27068 19.4561 7.27068 19.7893H7.27062ZM5.96074 7.9062L4.59424 6.51895L5.56605 2.57276H6.35543L7.32731 6.51895L5.96074 7.9062Z" fill="#2B59B2"/>
</g>
<defs>
<clipPath id="clip0">
<rect width="32" height="32" fill="white"/>
</clipPath>
</defs>
</svg>
