<svg width="30" height="30" viewBox="0 0 30 30" fill="none" xmlns="http://www.w3.org/2000/svg">
<mask id="mask0" mask-type="alpha" maskUnits="userSpaceOnUse" x="2" y="2" width="26" height="26">
<path d="M15 2.5C12.5277 2.5 10.111 3.23311 8.05538 4.60663C5.99976 5.98015 4.39761 7.93238 3.45151 10.2165C2.50542 12.5005 2.25787 15.0139 2.74019 17.4386C3.2225 19.8634 4.41301 22.0907 6.16117 23.8388C7.90933 25.587 10.1366 26.7775 12.5614 27.2598C14.9861 27.7421 17.4995 27.4946 19.7835 26.5485C22.0676 25.6024 24.0199 24.0002 25.3934 21.9446C26.7669 19.889 27.5 17.4723 27.5 15C27.4904 11.6877 26.1703 8.51391 23.8282 6.17179C21.4861 3.82967 18.3122 2.50962 15 2.5V2.5ZM12.9167 20.6396L7.27709 15L8.75 13.5271L12.9167 17.6937L21.25 9.36041L22.7229 10.8333L12.9167 20.6396Z" fill="black"/>
</mask>
<g mask="url(#mask0)">
<rect width="30" height="30" fill="white"/>
<rect width="30" height="30" fill="#0CA25A"/>
</g>
</svg>
